<?xml version="1.0" encoding="iso-8859-1"?>
<!-- Generator: Adobe Illustrator 19.0.0, SVG Export Plug-In . SVG Version: 6.00 Build 0)  -->
<svg version="1.1" id="Capa_1" xmlns="http://www.w3.org/2000/svg" xmlns:xlink="http://www.w3.org/1999/xlink" x="0px" y="0px"
	 viewBox="0 0 512 512" style="enable-background:new 0 0 512 512;" xml:space="preserve">
<g>
	<g>
		<path d="M451.388,353.418C466.328,342.087,476,324.154,476,304c0-34.187-27.813-62-62-62s-62,27.813-62,62
			c0,20.148,9.666,38.075,24.598,49.407c-12.391,5.114-23.666,12.749-33.087,22.52c-10.562-20.884-28.382-37.496-50.123-46.503
			C308.328,318.093,318,300.16,318,280.006c0-34.187-27.813-62-62-62s-62,27.813-62,62c0,20.154,9.672,38.087,24.612,49.418
			c-21.741,9.007-39.56,25.619-50.123,46.503c-9.421-9.772-20.696-17.406-33.087-22.52C150.334,342.075,160,324.148,160,304
			c0-34.187-27.813-62-62-62s-62,27.813-62,62c0,20.154,9.672,38.087,24.612,49.418C25.069,368.143,0,403.197,0,444v58
			c0,5.522,4.477,10,10,10h158h176h158c5.523,0,10-4.478,10-10v-58C512,403.197,486.931,368.143,451.388,353.418z M56,304
			c0-23.159,18.841-42,42-42s42,18.841,42,42s-18.841,42-42,42S56,327.159,56,304z M158,420.006V492H20v-48c0-43.01,34.991-78,78-78
			c24.807,0,47.897,11.703,62.61,31.509C158.906,404.736,158,412.267,158,420.006z M214,280.006c0-23.159,18.841-42,42-42
			s42,18.841,42,42s-18.841,42-42,42S214,303.165,214,280.006z M334,492h-19.833v-31.527c0-5.522-4.477-10-10-10s-10,4.478-10,10
			V492H178v-71.994c0-43.01,34.991-78,78-78c43.009,0,78,34.99,78,78V492z M372,304c0-23.159,18.841-42,42-42s42,18.841,42,42
			s-18.841,42-42,42S372,327.159,372,304z M492,492H354v-71.994c0-7.739-0.906-15.27-2.61-22.497
			C366.103,377.703,389.193,366,414,366c43.009,0,78,34.99,78,78V492z"/>
	</g>
</g>
<g>
	<g>
		<path d="M355.072,30.801c-3.905-3.906-10.237-3.905-14.143,0l-34.314,34.314c-3.905,3.905-3.905,10.237,0,14.143
			c1.953,1.952,4.512,2.929,7.072,2.929c2.559,0,5.119-0.976,7.071-2.929l34.314-34.314
			C358.977,41.039,358.977,34.707,355.072,30.801z"/>
	</g>
</g>
<g>
	<g>
		<path d="M205.384,65.115L171.07,30.801c-3.905-3.905-10.237-3.905-14.143,0c-3.906,3.905-3.905,10.237,0,14.143l34.315,34.314
			c1.953,1.953,4.512,2.929,7.071,2.929c2.559,0,5.119-0.976,7.071-2.929C209.289,75.353,209.289,69.021,205.384,65.115z"/>
	</g>
</g>
<g>
	<g>
		<path d="M256,0c-5.523,0-10,4.477-10,10v21.487c0,5.523,4.477,10,10,10s10-4.477,10-10V10C266,4.477,261.523,0,256,0z"/>
	</g>
</g>
<g>
	<g>
		<path d="M333.704,112.955c-1.75-5.387-6.32-9.238-11.924-10.052l-36.3-5.275l-16.234-32.894C266.739,59.655,261.664,56.5,256,56.5
			s-10.739,3.155-13.246,8.234L226.52,97.628l-36.299,5.275c-5.605,0.814-10.174,4.666-11.925,10.052
			c-1.75,5.386-0.319,11.188,3.737,15.142l26.268,25.604l-6.201,36.153c-0.958,5.582,1.293,11.118,5.875,14.448
			c2.589,1.881,5.619,2.837,8.668,2.837c2.348,0,4.708-0.566,6.888-1.712L256,188.357l32.468,17.069
			c5.013,2.636,10.974,2.205,15.557-1.124c4.582-3.33,6.833-8.866,5.875-14.447l-6.201-36.154l26.268-25.604
			C334.023,124.143,335.454,118.341,333.704,112.955z M287.77,141.299c-3.481,3.394-5.069,8.28-4.248,13.074l4.875,28.421
			l-25.523-13.418c-2.152-1.132-4.513-1.697-6.874-1.697c-2.361,0-4.722,0.565-6.874,1.697l-25.523,13.418l4.875-28.422
			c0.821-4.792-0.767-9.679-4.249-13.073l-20.649-20.127l28.535-4.147c4.814-0.699,8.972-3.72,11.123-8.081L256,83.086
			l13.872,28.107c1.456,2.95,4.27,4.995,7.525,5.47l31.022,4.508L287.77,141.299z"/>
	</g>
</g>
<g>
	<g>
		<path d="M311.24,414.46c-1.87-1.86-4.44-2.92-7.07-2.92c-2.64,0-5.21,1.06-7.07,2.92c-1.87,1.87-2.93,4.439-2.93,7.08
			c0,2.63,1.06,5.21,2.93,7.069c1.86,1.861,4.43,2.931,7.07,2.931c2.63,0,5.2-1.07,7.07-2.931c1.86-1.869,2.93-4.439,2.93-7.069
			S313.1,416.33,311.24,414.46z"/>
	</g>
</g>
<g>
</g>
<g>
</g>
<g>
</g>
<g>
</g>
<g>
</g>
<g>
</g>
<g>
</g>
<g>
</g>
<g>
</g>
<g>
</g>
<g>
</g>
<g>
</g>
<g>
</g>
<g>
</g>
<g>
</g>
</svg>
