<svg id="Layer_1" enable-background="new 0 0 512 512" height="512" viewBox="0 0 512 512" width="512" xmlns="http://www.w3.org/2000/svg"><path d="m376.72 40.23c-3.79 0-7.23 1.54-9.72 4.03-2.49 2.49-4.03 5.93-4.03 9.61v47.44c0 17.91 27.51 18.14 27.51 0v-47.44c-.01-7.47-6.29-13.64-13.76-13.64zm4.86 388.51-29.65 11.86c-6.4 2.61-13.28-2.73-12.57-9.61l3.56-31.07-18.74-22.53c-4.51-5.46-4.15-14.11 4.39-15.89l30.72-6.29 16.25-25.85c.83-1.3 2.02-2.49 3.44-3.2 4.15-2.25 9.61-.95 12.21 3.2l16.25 25.85 30.72 6.29c1.54.36 3.08 1.07 4.27 2.13 3.68 3.2 4.27 8.89.95 12.81l-19.57 23.48 3.56 31.07c.36 3.32-1.07 6.4-3.56 8.3v.12c-1.3.95-2.73 1.54-4.39 1.78-6.4.83-30.36-12.69-36.05-12.69-.84 0-1.44.12-1.79.24zm-26.09-5.81 20.52-8.18c4.03-1.78 10.55-1.66 14.71 0l20.52 8.18c-.59-4.98-3.44-23.96-2.37-27.51.95-3.32 13.64-17.43 16.6-21.11-5.22-1.07-23.84-4.15-26.92-6.17-.95-.71-1.78-1.66-2.49-2.73l-12.69-20.16c-2.73 4.39-12.21 20.75-15.18 22.89v-.12c-2.96 2.13-22.3 5.34-26.92 6.29 2.96 3.68 15.65 17.79 16.6 21.11 1.06 3.55-1.79 22.64-2.38 27.51zm44.11-54.2c-.36-.24-.71-.47-.95-.59m-174.56-273.12h-66.06v6.29c0 25.38-31.07 38.66-49.33 20.4-5.22-5.22-8.42-12.45-8.42-20.4v-6.29h-42.93c-7.35 0-13.28 6.05-13.28 13.28v41.39h417.68v-41.39c0-3.68-1.42-7-3.91-9.37-2.37-2.49-5.69-3.91-9.37-3.91h-42.93v6.29c0 25.5-31.07 38.66-49.22 20.4-5.22-5.22-8.54-12.45-8.54-20.4v-6.29h-66.06v6.29c0 7.95-3.2 15.18-8.42 20.4-18.26 18.26-49.22 5.1-49.22-20.4v-6.29zm181.44-15.18h42.93c7.47 0 15.42 3.32 20.04 8.42 5.22 5.1 8.42 12.21 8.42 20.04v48.98 195.91c12.33 33.92 7 74.36-23.01 104.48-47.08 46.96-119.3 33.68-152.39-13.28h-244.17c-15.65 0-28.46-12.81-28.46-28.46v-258.65c0-.24 0-.36 0-.47 0-.24 0-.36 0-.59v-47.92c0-15.65 12.81-28.46 28.46-28.46h42.93v-25.97c0-15.89 12.93-28.82 28.82-28.82 7.95 0 15.18 3.2 20.4 8.54 5.22 5.22 8.54 12.33 8.54 20.28v25.97h66.06v-25.97c0-15.89 12.93-28.82 28.82-28.82 7.95 0 15.18 3.2 20.4 8.54 5.22 5.22 8.42 12.33 8.42 20.28v25.97h66.06v-25.97c0-7.95 3.32-15.06 8.54-20.28 5.22-5.34 12.45-8.54 20.4-8.54 15.89 0 28.82 12.93 28.82 28.82v25.97zm-276.43-39.61c-7.47 0-13.64 6.17-13.64 13.64v47.44c0 18.14 27.39 17.91 27.39 0v-47.44c0-3.68-1.54-7.12-4.03-9.61-2.49-2.49-5.93-4.03-9.72-4.03zm123.81 0c-7.47 0-13.76 6.17-13.76 13.64v47.44c0 11.98 14.71 18.5 23.48 9.72 2.49-2.49 4.03-5.93 4.03-9.72v-47.44c0-3.68-1.54-7.12-4.03-9.61-2.49-2.49-5.93-4.03-9.72-4.03zm155 250.23-3.32-4.74c-7.35-7.35-19.45-6.4-25.62 1.9 9.61-.48 19.57.47 28.94 2.84zm16.84 5.69c13.64 6.29 25.38 15.42 34.51 26.45.95 1.07 1.78 2.02 2.49 3.08v-160.93h-417.68v251.18c0 7.35 6.05 13.4 13.28 13.4h235.4c-3.79-8.3-6.52-17.31-7.95-26.92-1.78-10.91-1.54-21.82.36-32.26 2.49-14.82 8.3-28.58 16.72-40.44-17.2 1.19-34.51-11.86-34.51-32.02 0-17.67 14.35-32.02 32.14-32.02 20.87 0 34.15 18.5 31.78 36.41 9.13-5.57 19.21-9.84 30.24-12.21 3.56-13.99 16.13-24.19 31.07-24.19 20.88-.01 31.32 17.78 32.15 30.47zm18.38 31.19c-21.11-21.11-44.12-25.97-72.58-23.72-8.54 1.42-16.48 4.03-23.96 7.59-30.95 14.82-50.99 47.44-47.44 84.32 1.42 13.4 5.69 25.85 12.93 37.24.24.47.47.83.71 1.3 27.51 41.15 90.01 53.37 130.33 12.93 33.09-32.97 33.09-86.57.01-119.66zm-236.83 17.91c28.46 0 42.93 34.51 22.77 54.67-12.57 12.57-32.85 12.57-45.42 0-20.16-20.16-5.69-54.67 22.65-54.67zm11.98 20.04c-15.77-15.77-39.61 8.18-23.96 23.96 15.78 15.77 39.85-8.19 23.96-23.96zm-105.07-20.04c28.46 0 42.81 34.51 22.65 54.67s-54.67 5.81-54.67-22.65c0-17.67 14.35-32.02 32.02-32.02zm11.97 20.04c-15.77-15.77-39.73 8.18-23.96 23.96 15.78 15.77 39.74-8.19 23.96-23.96zm186.31-79.57c-15.77-15.77-39.73 8.18-23.96 23.96 15.78 15.76 39.73-8.19 23.96-23.96zm-105.19-20.05c28.46 0 42.93 34.51 22.77 54.67-12.57 12.57-32.85 12.57-45.42 0-20.16-20.16-5.69-54.67 22.65-54.67zm11.98 20.05c-15.77-15.77-39.73 8.18-23.96 23.96 15.78 15.76 39.85-8.19 23.96-23.96zm-105.07-20.05c28.46 0 42.81 34.51 22.65 54.67s-54.67 5.81-54.67-22.65c0-17.67 14.35-32.02 32.02-32.02zm11.97 20.05c-15.77-15.77-39.73 8.18-23.96 23.96 15.78 15.76 39.74-8.19 23.96-23.96zm267.43-99.62c29.89 0 42.46 36.88 22.18 55.15-22.41 20.28-54.2 3.56-54.2-23.13 0-8.78 3.56-16.84 9.37-22.65 5.81-5.81 13.75-9.37 22.65-9.37zm11.98 20.04c-6.64-6.52-17.31-6.52-23.96 0-15.77 15.77 8.18 39.73 23.96 23.96 6.64-6.53 6.64-17.32 0-23.96zm-105.08-20.04c28.46 0 42.81 34.63 22.65 54.79s-54.79 5.69-54.79-22.77c.01-17.67 14.35-32.02 32.14-32.02zm11.98 20.04c-15.77-15.77-39.73 8.18-23.96 23.96 15.78 15.77 39.73-8.19 23.96-23.96zm-105.19-20.04c28.46 0 42.93 34.63 22.77 54.79-12.57 12.45-32.85 12.45-45.42-.12v.12c-20.16-20.28-5.69-54.79 22.65-54.79zm11.98 20.04c-15.77-15.77-39.73 8.18-23.96 23.96 15.78 15.77 39.85-8.19 23.96-23.96zm-105.07-20.04c28.46 0 42.81 34.63 22.65 54.79s-54.67 5.69-54.67-22.77c0-17.67 14.35-32.02 32.02-32.02zm11.97 20.04c-15.77-15.77-39.73 8.18-23.96 23.96s39.74-8.19 23.96-23.96z"/></svg>