<?xml version="1.0" encoding="UTF-8"?>
<svg xmlns="http://www.w3.org/2000/svg" id="Layer_1" data-name="Layer 1" viewBox="0 0 64 64" width="512" height="512"><path d="M59.52509,51.26312A4.45494,4.45494,0,0,0,60.5,48.5a4.5,4.5,0,0,0-9,0,4.45494,4.45494,0,0,0,.97491,2.76312A4.99243,4.99243,0,0,0,50,53.03094a4.99243,4.99243,0,0,0-2.47491-1.76782A4.45494,4.45494,0,0,0,48.5,48.5a4.5,4.5,0,0,0-9,0,4.45494,4.45494,0,0,0,.97491,2.76312A4.99243,4.99243,0,0,0,38,53.03094a4.99243,4.99243,0,0,0-2.47491-1.76782A4.45494,4.45494,0,0,0,36.5,48.5a4.5,4.5,0,0,0-9,0,4.45494,4.45494,0,0,0,.97491,2.76312A4.99243,4.99243,0,0,0,26,53.03094a4.99243,4.99243,0,0,0-2.47491-1.76782A4.45494,4.45494,0,0,0,24.5,48.5a4.5,4.5,0,0,0-9,0,4.45494,4.45494,0,0,0,.97491,2.76312A4.99243,4.99243,0,0,0,14,53.03094a4.99243,4.99243,0,0,0-2.47491-1.76782A4.45494,4.45494,0,0,0,12.5,48.5a4.5,4.5,0,0,0-9,0,4.45494,4.45494,0,0,0,.97491,2.76312A4.99022,4.99022,0,0,0,1,56v6a.99974.99974,0,0,0,1,1H62a.99974.99974,0,0,0,1-1V56A4.99022,4.99022,0,0,0,59.52509,51.26312ZM8,46a2.5,2.5,0,1,1-2.5,2.5A2.50263,2.50263,0,0,1,8,46Zm5,15H3V56a3.00328,3.00328,0,0,1,3-3h4a3.00328,3.00328,0,0,1,3,3Zm7-15a2.5,2.5,0,1,1-2.5,2.5A2.50263,2.50263,0,0,1,20,46Zm5,15H15V56a3.00328,3.00328,0,0,1,3-3h4a3.00328,3.00328,0,0,1,3,3Zm7-15a2.5,2.5,0,1,1-2.5,2.5A2.50263,2.50263,0,0,1,32,46Zm5,15H27V56a3.00328,3.00328,0,0,1,3-3h4a3.00328,3.00328,0,0,1,3,3Zm7-15a2.5,2.5,0,1,1-2.5,2.5A2.50263,2.50263,0,0,1,44,46Zm5,15H39V56a3.00328,3.00328,0,0,1,3-3h4a3.00328,3.00328,0,0,1,3,3Zm7-15a2.5,2.5,0,1,1-2.5,2.5A2.50263,2.50263,0,0,1,56,46Zm5,15H51V56a3.00328,3.00328,0,0,1,3-3h4a3.00328,3.00328,0,0,1,3,3Z"/><path d="M62,1H2A.99974.99974,0,0,0,1,2V33a.99974.99974,0,0,0,1,1H18v8h2V28H44V42h2V34H62a.99974.99974,0,0,0,1-1V2A.99974.99974,0,0,0,62,1ZM20,20a1,1,0,1,1,1-1A1.001,1.001,0,0,1,20,20Zm18,6H26V21a3.00328,3.00328,0,0,1,3-3h6a3.00328,3.00328,0,0,1,3,3ZM29,13a3,3,0,1,1,3,3A3.00328,3.00328,0,0,1,29,13Zm14,6a1,1,0,1,1,1,1A1.001,1.001,0,0,1,43,19ZM61,5H38V7H61V32H46V27a.99974.99974,0,0,0-1-1h-.4696l.43933-1.75732A.97242.97242,0,0,0,45,24V21.81573a3.00011,3.00011,0,1,0-2-.00006V23.877L42.46948,26H40V21a5.00112,5.00112,0,0,0-4.10059-4.90906A4.94976,4.94976,0,0,0,37,13a5,5,0,0,0-10,0,4.94976,4.94976,0,0,0,1.10059,3.09094A5.00112,5.00112,0,0,0,24,21v5H21.53052L21,23.877V21.81573a3.00011,3.00011,0,1,0-2-.00006V24a.97242.97242,0,0,0,.03027.24268L19.4696,26H19a.99974.99974,0,0,0-1,1v5H3V7H26V5H3V3H61Z"/></svg>
