<svg height="512pt" viewBox="-17 0 512 512.001" width="512pt" xmlns="http://www.w3.org/2000/svg"><path d="m433.109375 425.097656h-3.558594v-9.023437c11.558594-8 18.585938-21.171875 18.585938-35.410157v-26.394531c0-.042969.003906-.089843.003906-.132812v-7.296875c0-2.902344-.355469-5.621094-1.019531-8.144532-3.640625-14.378906-16.683594-25.046874-32.175782-25.046874h-19.734374c-13.613282 0-25.59375 8.464843-30.636719 20.464843-4.527344-1.460937-9.28125-2.230469-14.085938-2.230469h-3.558593v-9.027343c11.566406-7.992188 18.597656-21.164063 18.597656-35.414063v-33.828125c0-.394531-.015625-.789062-.03125-1.179687-.152344-4.789063-1.210938-9.054688-3.035156-12.730469-5.273438-11.367187-16.789063-19.277344-30.125-19.277344h-19.734376c-17.679687 0-32.171874 13.894531-33.136718 31.339844-.039063.605469-.058594 1.222656-.058594 1.851563v7.296874c0 .046876.003906.09375.003906.136719v26.390625c0 14.238282 7.027344 27.410156 18.585938 35.410156v9.03125h-3.558594c-4.9375 0-9.8125.8125-14.441406 2.351563-5.011719-12.09375-16.992188-20.585937-30.683594-20.585937h-7.984375v-112.175782h13.308594c8.988281 0 16.296875-7.308594 16.296875-16.292968v-8.96875c0-8.988282-7.308594-16.296876-16.296875-16.296876h-10.691407l13.398438-44.398437c.746094-2.46875.179688-5.152344-1.503906-7.109375l-32.675782-38.023438c-2.722656-3.167968-7.496093-3.527343-10.660156-.808593-3.167968 2.722656-3.527344 7.496093-.808594 10.660156l29.976563 34.882813-13.519531 44.796874h-1.125v-19.921874c0-22.851563-18.589844-41.445313-41.4375-41.445313h-.746094v-6.925781c9.996094-7.265625 16.054688-18.949219 16.054688-31.484375v-6.796875c0-.035156.003906-.070313.003906-.109375v-29.316407c0-9.011718-5.011719-16.875-12.398438-20.949218-3.414062-1.886719-7.335937-2.964844-11.511718-2.964844h-30.066407c-13.1875 0-23.917969 10.730469-23.917969 23.917969v36.214843c0 12.929688 6.34375 24.808594 16.8125 32.027344v6.386719h-3.628906c-22.847656 0-41.433594 18.59375-41.433594 41.445313v19.921874h-28.054687c-8.984375 0-16.292969 7.308594-16.292969 16.296876v8.96875c0 8.984374 7.308594 16.292968 16.292969 16.292968h13.316406v112.175782h-16.074219c-16.613281 0-30.410156 12.265624-32.820312 28.214843-.246094 1.585938-.375 3.246094-.375 4.976563v7.296875c0 .046875.003906.089843.003906.136719v26.394531c0 14.234375 7.027344 27.410156 18.585938 35.40625v9.023437h-3.558594c-25.242188 0-45.78125 20.542969-45.78125 45.789063v24.222656c0 9.3125 7.578125 16.890625 16.894531 16.890625h445.101563c9.316406 0 16.894531-7.578125 16.894531-16.890625v-24.222656c0-25.25-20.539063-45.789063-45.78125-45.789063zm-37.375-13.175781c.007813-2.691406-1.421875-5.300781-3.953125-6.675781-6.945312-3.765625-11.855469-10.207032-13.757812-17.648438 7.398437 5.996094 16.816406 9.597656 27.058593 9.597656 10.238281 0 19.652344-3.597656 27.050781-9.589843-1.90625 7.429687-6.8125 13.871093-13.75 17.644531-2.53125 1.378906-3.960937 3.988281-3.949218 6.679688v20.726562c0 1.25-1.019532 2.269531-2.269532 2.269531h-14.160156c-1.25 0-2.269531-1.019531-2.269531-2.269531zm-18.59375-65.082031c0-.554688.03125-1.117188.082031-1.683594.84375-9.195312 8.722656-16.386719 17.988282-16.386719h19.734374c9.964844 0 18.074219 8.105469 18.074219 18.070313v7.429687c-.074219 15.34375-12.578125 27.804688-27.9375 27.804688-15.40625 0-27.941406-12.535157-27.941406-27.9375zm-64.023437-28.136719c0-.03125-.003907-.0625-.003907-.09375-.003906-.519531-.039062-.898437-.105469-1.167969-.367187-2.21875-1.710937-4.253906-3.839843-5.414062-6.9375-3.773438-11.84375-10.210938-13.75-17.640625 7.398437 5.988281 16.808593 9.589843 27.046875 9.589843 10.246094 0 19.660156-3.601562 27.058594-9.597656-1.90625 7.4375-6.8125 13.878906-13.753907 17.644532-2.53125 1.375-3.964843 3.984374-3.957031 6.675781v20.742187c0 1.253906-1.015625 2.269532-2.265625 2.269532h-14.164063c-1.25 0-2.265624-1.015626-2.265624-2.269532zm-18.589844-65.085937c0-9.964844 8.109375-18.074219 18.074218-18.074219h19.734376c9.929687 0 18.007812 8.050781 18.066406 17.96875 0 .035156.003906.070312.003906.105469v7.296874c0 15.40625-12.535156 27.941407-27.941406 27.941407-15.359375 0-27.863282-12.460938-27.9375-27.804688zm-41.78125 151.632812c-2.527344 1.378906-3.957032 3.988281-3.949219 6.679688v20.726562c0 1.25-1.015625 2.269531-2.265625 2.269531h-14.171875c-1.25 0-2.269531-1.019531-2.269531-2.269531v-20.726562c.011718-2.691407-1.417969-5.304688-3.949219-6.679688-6.9375-3.773438-11.84375-10.214844-13.75-17.648438 7.398437 5.992188 16.8125 9.59375 27.054687 9.59375 10.242188 0 19.652344-3.601562 27.054688-9.59375-1.90625 7.433594-6.8125 13.875-13.753906 17.648438zm-41.332032 19.847656c-25.242187 0-45.78125 20.539063-45.78125 45.789063v24.21875c0 .601562.035157 1.191406.097657 1.777343h-18.203125c.0625-.585937.09375-1.175781.09375-1.777343v-24.21875c0-12.9375-5.515625-25.335938-15.132813-34.019531-8.417969-7.589844-19.308593-11.769532-30.65625-11.769532h-3.558593v-9.019531c11.566406-7.988281 18.597656-21.160156 18.597656-35.414063v-30.421874c4.222656-2.121094 8.886718-3.242188 13.699218-3.242188h5.308594c2.820313 5.808594 8.757813 9.828125 15.632813 9.828125h14.171875c6.878906 0 12.816406-4.023437 15.636718-9.828125h5.308594c3.378906 0 6.640625.542969 9.757813 1.59375v32.074219c0 14.234375 7.027343 27.40625 18.585937 35.40625v9.023437zm-146.957031-13.167968c.011719-2.691407-1.417969-5.304688-3.949219-6.679688-6.9375-3.773438-11.84375-10.210938-13.75-17.644531 7.398438 5.992187 16.8125 9.589843 27.050782 9.589843 10.242187 0 19.65625-3.601562 27.058594-9.597656-1.90625 7.441406-6.8125 13.882813-13.757813 17.648438-2.53125 1.375-3.960937 3.984375-3.953125 6.675781v20.734375c0 1.222656-.941406 2.203125-2.152344 2.265625h-14.277344c-1.253906 0-2.269531-1.015625-2.269531-2.265625zm-18.585937-65.089844c0-9.964844 8.105468-18.070313 18.074218-18.070313h19.734376c.921874 0 1.859374.070313 2.757812.203125 8.542969 1.304688 14.964844 8.511719 15.292969 17.1875.007812.226563.015625.453125.015625.679688v7.296875c0 15.40625-12.53125 27.9375-27.9375 27.9375-15.359375 0-27.863282-12.460938-27.9375-27.800781zm84.789062-93.226563c0-.589843.03125-1.171875.085938-1.746093.003906-.046876.007812-.089844.011718-.132813.945313-9.082031 8.644532-16.191406 17.972657-16.191406h19.734375c9.964844 0 18.070312 8.105469 18.074218 18.070312v.003907 7.296874c0 15.40625-12.535156 27.941407-27.941406 27.941407s-27.9375-12.535157-27.9375-27.941407v-7.296874zm27.9375 50.363281c10.242188 0 19.652344-3.601562 27.054688-9.59375-1.90625 7.433594-6.8125 13.871094-13.75 17.644532-2.53125 1.375-3.960938 3.984375-3.949219 6.675781v20.738281c0 1.25-1.019531 2.269532-2.269531 2.269532h-14.171875c-1.25 0-2.269531-1.019532-2.269531-2.269532v-20.738281c.011718-2.691406-1.417969-5.300781-3.949219-6.675781-6.9375-3.773438-11.84375-10.210938-13.75-17.644532 7.402343 5.992188 16.816406 9.59375 27.054687 9.59375zm80.847656 78.097657c-15.40625 0-27.941406-12.53125-27.941406-27.9375v-7.296875c0-.347656.011719-.699219.035156-1.058594.003907-.050781.011719-.105469.015626-.160156.023437-.328125.054687-.660156.097656-1 0-.011719 0-.019532.003906-.03125 1.109375-9.023438 8.8125-15.824219 17.921875-15.824219h19.734375c9.382812 0 17.296875 7.3125 18.015625 16.636719.015625.242187.03125.472656.039063.691406.007812.246094.019531.492188.019531.734375v.011719 7.296875c0 15.40625-12.535157 27.9375-27.941407 27.9375zm-84.496093-276.070313c0-.097656-.003907-.191406-.007813-.285156v-7.277344c4.878906.890625 9.945313.839844 14.785156-.144531v7.414063c-.003906.097656-.007812.191406-.011718.292968-.050782 4.011719-3.363282 7.277344-7.375 7.277344-4.019532 0-7.335938-3.265625-7.390625-7.277344zm23.542969-76.617187c-.496094-3.695313-3.652344-6.550781-7.488282-6.550781-3.804687 0-6.949218 2.816406-7.472656 6.480468h-16.605469c-3.101562 0-6.070312.59375-8.792969 1.675782v-7.078126c0-4.847656 3.945313-8.792968 8.792969-8.792968h30.066407c1.515624 0 2.941406.386718 4.1875 1.0625 2.738281 1.492187 4.601562 4.398437 4.601562 7.734375v7.070312c-2.277344-.902343-4.734375-1.441406-7.289062-1.601562zm-40.363282 23.929687c0-.027344.003906-.054687.003906-.085937 0-4.847657 3.945313-8.792969 8.792969-8.792969h30.066407c4.8125 0 8.730468 3.886719 8.789062 8.683594v7.011718c0 8.617188-4.667969 16.582032-12.1875 20.789063 0 0-.003906.003906-.007812.003906 0 0-.003907 0-.003907.003907-3.578125 2.011718-7.492187 3.03125-11.628906 3.03125-3.902344 0-7.621094-.914063-11.054687-2.722657-.003907 0-.003907 0-.003907 0-7.875-4.132812-12.765625-12.21875-12.765625-21.105469zm-28.253906 86.675782c0-14.515626 11.804688-26.328126 26.316406-26.328126h5.035156c3.191407 8.578126 11.484376 14.738282 21.109376 14.738282s17.914062-6.160156 21.101562-14.738282h2.152344c14.511718 0 26.320312 11.8125 26.320312 26.328126v19.921874h-16.109375v-8.421874c0-4.175782-3.382812-7.558594-7.558593-7.558594-4.175782 0-7.5625 3.382812-7.5625 7.558594v8.421874h-39.167969v-8.421874c0-4.175782-3.382813-7.558594-7.558594-7.558594s-7.558594 3.382812-7.558594 7.558594v8.421874h-16.519531zm-4.738281 61.480468c4.175781 0 7.5625-3.382812 7.5625-7.558594 0-4.175781-3.386719-7.558593-7.5625-7.558593h-38.433594c-.648437 0-1.175781-.527344-1.175781-1.175781v-8.96875c0-.648438.527344-1.179688 1.175781-1.179688h35.523437c.03125 0 .058594.003906.089844.003906s.058594-.003906.089844-.003906h31.460938c.03125 0 .058593.003906.089843.003906.027344 0 .054688-.003906.085938-.003906h54.113281c.027344 0 .058594.003906.085938.003906.03125 0 .058593-.003906.089843-.003906h31.050781c.027344 0 .058594.003906.085938.003906.03125 0 .058594-.003906.089844-.003906h14.1875c.007812 0 .019531.003906.027344.003906.007812 0 .015624-.003906.023437-.003906h20.84375c.648437 0 1.175781.53125 1.175781 1.179688v8.96875c0 .648437-.527344 1.175781-1.175781 1.175781h-19.167969c-.546875-.125-1.117187-.199219-1.703125-.199219-.585937 0-1.15625.070312-1.703125.199219h-90.519531c-4.171875 0-7.558594 3.382812-7.558594 7.558593 0 4.175782 3.386719 7.558594 7.558594 7.558594h84.664063v112.351563c-12.078126 1.226562-22.386719 8.964843-27.089844 19.8125-4.050782-1.144531-8.261719-1.753907-12.492188-1.753907h-3.558594v-9.03125c11.558594-8 18.585938-21.171874 18.585938-35.410156v-33.824218c0-.003907 0-.007813 0-.011719-.003906-9.46875-3.324219-17.34375-9.0625-22.746094-6.054688-6.417969-14.628906-10.433594-24.128906-10.433594h-19.734375c-18.300781 0-33.191407 14.890625-33.191407 33.191407v33.824218c0 14.238282 7.03125 27.410156 18.585938 35.410156v9.03125h-3.554688c-5.515624 0-10.910156.980469-15.976562 2.871094-3.429688-8.769531-10.492188-15.773437-19.453125-19.066406v-114.214844zm7.160156 295.410156v-12.898437c0-4.175781-3.386719-7.558594-7.5625-7.558594s-7.558594 3.382813-7.558594 7.558594v12.898437h-46.277343v-12.898437c0-4.175781-3.382813-7.558594-7.558594-7.558594-4.175782 0-7.558594 3.382813-7.558594 7.558594v12.898437h-18.886719c-.980469 0-1.773437-.796874-1.773437-1.777343v-24.21875c0-16.914063 13.753906-30.671875 30.660156-30.671875h5.3125c2.816406 5.804687 8.757812 9.828125 15.632812 9.828125h14.402344c.0625 0 .125-.003907.1875-.003907 6.789063-.167968 12.511719-4.117187 15.238282-9.824218h5.277343c7.601563 0 14.894531 2.800781 20.527344 7.878906 6.445313 5.820312 10.144531 14.128906 10.144531 22.792969v24.21875c0 .980469-.800781 1.777343-1.785156 1.777343zm165.636719 0v-12.898437c0-4.175781-3.386719-7.558594-7.5625-7.558594-4.171875 0-7.558594 3.382813-7.558594 7.558594v12.898437h-46.277344v-12.898437c0-4.175781-3.382812-7.558594-7.558594-7.558594-4.175781 0-7.558593 3.382813-7.558593 7.558594v12.898437h-18.878907c-.984374 0-1.785156-.796874-1.785156-1.777343v-24.21875c0-16.914063 13.753906-30.671875 30.660156-30.671875h5.3125c2.820313 5.804687 8.757813 9.828125 15.632813 9.828125h14.171875c6.875 0 12.8125-4.023438 15.632812-9.828125h5.3125c16.90625 0 30.660157 13.757812 30.660157 30.671875 0 4.175781 3.386719 7.558593 7.558593 7.558593 4.175782 0 7.558594-3.382812 7.558594-7.558593 0-25.25-20.535156-45.789063-45.777344-45.789063h-3.558593v-9.023437c11.558593-8 18.585937-21.171875 18.585937-35.410157v-31.25c3.75-1.585937 7.808594-2.414062 11.933594-2.414062h5.3125c2.820312 5.804688 8.757812 9.828125 15.632812 9.828125h14.160157c6.878906 0 12.816406-4.023437 15.632812-9.828125h5.3125c3.972657 0 7.890625.773438 11.53125 2.25v31.414062c0 14.25 7.03125 27.425782 18.597657 35.414063v9.015625h-3.558594c-25.25 0-45.789063 20.542969-45.789063 45.792969v24.21875c0 .597656.03125 1.191406.09375 1.773437h-53.429687zm185.839844-1.777343c0 .980469-.796876 1.777343-1.777344 1.777343h-18.425782v-12.898437c0-4.175781-3.386718-7.558594-7.558593-7.558594-4.175781 0-7.5625 3.382813-7.5625 7.558594v12.898437h-46.277344v-12.898437c0-4.175781-3.382813-7.558594-7.558594-7.558594s-7.558593 3.382813-7.558593 7.558594v12.898437h-18.886719c-.984375 0-1.78125-.796874-1.78125-1.777343v-24.21875c0-16.914063 13.757812-30.671875 30.667969-30.671875h5.3125c2.820312 5.804687 8.757812 9.828125 15.632812 9.828125h14.164062c6.875 0 12.8125-4.023438 15.632813-9.828125h5.3125c16.90625 0 30.660156 13.757812 30.660156 30.671875v24.21875zm0 0"/><path d="m460.453125 12.710938h-155.636719c-10.167968 0-18.4375 8.269531-18.4375 18.4375v66.234374c0 10.167969 8.269532 18.4375 18.4375 18.4375h6.757813v12.222657c0 4 2.390625 7.574219 6.085937 9.105469 1.226563.507812 2.507813.753906 3.78125.753906 2.558594 0 5.070313-1 6.960938-2.890625l19.191406-19.191407h22.085938c4.175781 0 7.5625-3.382812 7.5625-7.558593s-3.386719-7.5625-7.5625-7.5625h-22.320313c-3.886719 0-7.542969 1.515625-10.292969 4.265625l-10.371094 10.371094v-.078126c0-8.027343-6.527343-14.554687-14.554687-14.554687h-7.320313c-1.832031 0-3.320312-1.492187-3.320312-3.320313v-66.234374c0-1.828126 1.488281-3.320313 3.320312-3.320313h155.632813c1.832031 0 3.324219 1.492187 3.324219 3.320313v66.234374c0 1.828126-1.492188 3.320313-3.320313 3.320313h-55.375c-4.175781 0-7.558593 3.382813-7.558593 7.558594s3.382812 7.558593 7.558593 7.558593h55.375c10.167969 0 18.4375-8.269531 18.4375-18.4375v-66.234374c-.003906-10.164063-8.273437-18.4375-18.441406-18.4375zm0 0"/><path d="m326.441406 57.101562h112.386719c4.175781 0 7.558594-3.386718 7.558594-7.5625 0-4.171874-3.382813-7.558593-7.558594-7.558593h-112.386719c-4.175781 0-7.558594 3.386719-7.558594 7.558593 0 4.175782 3.382813 7.5625 7.558594 7.5625zm0 0"/><path d="m326.441406 85.078125h53.839844c4.175781 0 7.5625-3.382813 7.5625-7.558594s-3.386719-7.558593-7.5625-7.558593h-53.839844c-4.175781 0-7.558594 3.382812-7.558594 7.558593s3.382813 7.558594 7.558594 7.558594zm0 0"/></svg>