<svg id="Layer_1" enable-background="new 0 0 468 468" height="512" viewBox="0 0 468 468" width="512" xmlns="http://www.w3.org/2000/svg"><g><g><path d="m349.349 52.775h-15.967c-2.762 0-5 2.238-5 5s2.238 5 5 5h4.906l-45.894 52.152-39.468-45.187c-2.059-2.359-5.829-2.122-7.659.152l-45.561 56.559-32.78-34.653c-2.404-2.076-4.816-2.086-7.237-.029l-44.642 46.44c-1.914 1.99-1.852 5.156.14 7.069 2.376 1.906 4.732 1.86 7.069-.14l41.008-42.66 33.111 35.004c2.599 2.18 5.108 2.081 7.526-.299l45.414-56.376 39.3 44.994c1.988 2.276 5.525 2.281 7.52.014l48.214-54.789v3.021c0 2.762 2.238 5 5 5s5-2.238 5-5v-16.272c0-2.761-2.239-5-5-5z"/><g><path d="m182.094 41.725h-63.442c-2.762 0-5-2.238-5-5s2.238-5 5-5h63.442c2.762 0 5 2.238 5 5s-2.239 5-5 5z"/></g><g><path d="m162.094 75.725h-43.442c-2.762 0-5-2.238-5-5s2.238-5 5-5h43.442c2.762 0 5 2.238 5 5s-2.239 5-5 5z"/></g><path d="m439.793 366.97-17.875-60.145c-.589-1.979-2.334-3.395-4.394-3.56-2.052-.169-4.008.953-4.904 2.814l-28.148 58.429h-33.973l-7.664-44h42.134c1.883 0 3.605-1.058 4.458-2.735l30.031-59.114c.58-1.142.699-2.462.335-3.689l-17.875-60.145c-1.277-4.293-7.353-4.779-9.298-.745l-28.148 58.429h-33.482l-12.908-74.11h63.376c2.762 0 5-2.238 5-5v-109.399c0-2.762-2.238-5-5-5s-5 2.238-5 5v104.398h-284.916v-158.398h307.458c2.762 0 5-2.238 5-5s-2.238-5-5-5h-330c-2.762 0-5 2.238-5 5s2.238 5 5 5h12.542v163.398c0 2.762 2.238 5 5 5h63.376l-12.908 74.11h-33.481l-28.149-58.428c-1.946-4.034-8.021-3.547-9.298.745l-17.875 60.145c-.364 1.228-.245 2.548.335 3.689l30.031 59.114c.853 1.678 2.575 2.735 4.458 2.735h42.134l-7.664 44h-33.973l-28.148-58.428c-1.945-4.035-8.021-3.546-9.298.745l-17.875 60.145c-.364 1.228-.245 2.548.335 3.689l30.031 59.114c.853 1.678 2.575 2.735 4.458 2.735h5v30.492c0 2.762 2.238 5 5 5s5-2.238 5-5v-30.491h27.626l-4.719 27.091c-.177 3.482 1.465 5.435 4.926 5.858h256.271c3.461-.423 5.103-2.376 4.926-5.858l-4.719-27.091h27.626v30.491c0 2.762 2.238 5 5 5s5-2.238 5-5v-30.491h5c1.883 0 3.605-1.058 4.458-2.735l30.031-59.114c.581-1.142.7-2.463.336-3.69zm-72.18-104.461c1.92 0 3.671-1.1 4.505-2.83l23.898-49.607 13.622 45.836-27.738 54.601h-40.808l-8.36-48zm-281.513 48-27.738-54.602 13.622-45.836 23.898 49.607c.834 1.73 2.585 2.83 4.505 2.83h34.881l-8.36 48h-40.808zm-20 112-27.738-54.602 13.622-45.836 23.898 49.607c.834 1.73 2.585 2.83 4.505 2.83h35.373l-8.361 48h-41.299zm45.711 32.949 48.258-277.06h147.863l48.258 277.06zm290.089-32.949h-41.299l-8.361-48h35.373c1.92 0 3.671-1.1 4.505-2.83l23.898-49.607 13.622 45.836z"/></g><g><circle cx="381.458" cy="35.775" r="6.5"/></g></g></svg>