<svg width="161" height="32" viewBox="0 0 161 32" fill="none" xmlns="http://www.w3.org/2000/svg">
<rect width="161" height="32" rx="4" fill="#005FB8"/>
<path d="M25.6043 15.1468C26.2422 15.5367 26.2422 16.4632 25.6043 16.8532L15.7716 22.8641C15.1052 23.2714 14.25 22.7919 14.25 22.0109L14.25 9.98913C14.25 9.20814 15.1052 8.72858 15.7716 9.13593L25.6043 15.1468Z" fill="white"/>
<path d="M32.7681 19.6318V18.375C32.9119 18.502 33.0833 18.6162 33.2822 18.7178C33.4854 18.8193 33.6969 18.9061 33.917 18.978C34.1413 19.0457 34.3656 19.0986 34.5898 19.1367C34.8141 19.1748 35.0215 19.1938 35.2119 19.1938C35.8678 19.1938 36.3566 19.0732 36.6782 18.832C37.0041 18.5866 37.167 18.2354 37.167 17.7783C37.167 17.5329 37.112 17.3192 37.002 17.1372C36.8962 16.9552 36.748 16.7902 36.5576 16.6421C36.3672 16.4897 36.1408 16.3459 35.8784 16.2104C35.6203 16.0708 35.341 15.9248 35.0405 15.7725C34.7231 15.6117 34.4269 15.4487 34.1519 15.2837C33.8768 15.1187 33.6377 14.9367 33.4346 14.7378C33.2314 14.5389 33.0706 14.3146 32.9521 14.0649C32.8379 13.811 32.7808 13.5148 32.7808 13.1763C32.7808 12.7616 32.8717 12.4019 33.0537 12.0972C33.2357 11.7882 33.4748 11.5343 33.771 11.3354C34.0672 11.1366 34.4036 10.9884 34.7803 10.8911C35.1611 10.7938 35.5483 10.7451 35.9419 10.7451C36.839 10.7451 37.4928 10.853 37.9033 11.0688V12.2686C37.3659 11.8962 36.6761 11.71 35.834 11.71C35.6012 11.71 35.3685 11.7354 35.1357 11.7861C34.903 11.8327 34.6956 11.911 34.5137 12.021C34.3317 12.131 34.1836 12.2728 34.0693 12.4463C33.9551 12.6198 33.8979 12.8314 33.8979 13.0811C33.8979 13.3138 33.9403 13.5148 34.0249 13.6841C34.1138 13.8534 34.2428 14.0078 34.4121 14.1475C34.5814 14.2871 34.7866 14.4225 35.0278 14.5537C35.2733 14.6849 35.5547 14.8288 35.8721 14.9854C36.1979 15.1462 36.5068 15.3154 36.7988 15.4932C37.0908 15.6709 37.3468 15.8677 37.5669 16.0835C37.7869 16.2993 37.9604 16.5384 38.0874 16.8008C38.2186 17.0632 38.2842 17.3636 38.2842 17.7021C38.2842 18.1507 38.1953 18.5316 38.0176 18.8447C37.8441 19.1536 37.6071 19.4054 37.3066 19.6001C37.0104 19.7948 36.6676 19.9344 36.2783 20.019C35.889 20.1079 35.4785 20.1523 35.0469 20.1523C34.903 20.1523 34.7253 20.1396 34.5137 20.1143C34.3021 20.0931 34.0863 20.0592 33.8662 20.0127C33.6462 19.9704 33.4367 19.9175 33.2378 19.854C33.0431 19.7863 32.8866 19.7122 32.7681 19.6318ZM42.5562 19.9365C42.3107 20.0719 41.987 20.1396 41.585 20.1396C40.4466 20.1396 39.8774 19.5049 39.8774 18.2354V14.3887H38.7603V13.5H39.8774V11.9131L40.9185 11.5767V13.5H42.5562V14.3887H40.9185V18.0513C40.9185 18.4871 40.9925 18.7982 41.1406 18.9844C41.2887 19.1706 41.5342 19.2637 41.877 19.2637C42.1393 19.2637 42.3657 19.1917 42.5562 19.0479V19.9365ZM48.5991 20H47.5581V18.9844H47.5327C47.0799 19.763 46.4134 20.1523 45.5332 20.1523C44.8857 20.1523 44.3779 19.981 44.0098 19.6382C43.6458 19.2954 43.4639 18.8405 43.4639 18.2734C43.4639 17.0589 44.179 16.3522 45.6094 16.1533L47.5581 15.8804C47.5581 14.7759 47.1117 14.2236 46.2188 14.2236C45.4359 14.2236 44.7292 14.4902 44.0986 15.0234V13.957C44.7376 13.5508 45.474 13.3477 46.3076 13.3477C47.8353 13.3477 48.5991 14.1559 48.5991 15.7725V20ZM47.5581 16.7119L45.9902 16.9277C45.5078 16.9954 45.1439 17.116 44.8984 17.2896C44.653 17.4588 44.5303 17.7614 44.5303 18.1973C44.5303 18.5146 44.6424 18.7749 44.8667 18.978C45.0952 19.1769 45.3978 19.2764 45.7744 19.2764C46.2907 19.2764 46.716 19.0965 47.0503 18.7368C47.3888 18.3729 47.5581 17.9137 47.5581 17.3594V16.7119ZM53.9502 14.5537C53.7682 14.4141 53.5059 14.3442 53.1631 14.3442C52.7188 14.3442 52.3464 14.5537 52.0459 14.9727C51.7497 15.3916 51.6016 15.9629 51.6016 16.6865V20H50.5605V13.5H51.6016V14.8394H51.627C51.7751 14.3823 52.0015 14.0269 52.3062 13.7729C52.6108 13.5148 52.9515 13.3857 53.3281 13.3857C53.599 13.3857 53.8063 13.4154 53.9502 13.4746V14.5537ZM58.0952 19.9365C57.8498 20.0719 57.526 20.1396 57.124 20.1396C55.9857 20.1396 55.4165 19.5049 55.4165 18.2354V14.3887H54.2993V13.5H55.4165V11.9131L56.4575 11.5767V13.5H58.0952V14.3887H56.4575V18.0513C56.4575 18.4871 56.5316 18.7982 56.6797 18.9844C56.8278 19.1706 57.0732 19.2637 57.416 19.2637C57.6784 19.2637 57.9048 19.1917 58.0952 19.0479V19.9365ZM66.2646 11.291C66.0615 11.1768 65.8309 11.1196 65.5728 11.1196C64.8449 11.1196 64.481 11.5788 64.481 12.4971V13.5H66.0044V14.3887H64.481V20H63.4463V14.3887H62.3354V13.5H63.4463V12.4463C63.4463 11.765 63.6431 11.2275 64.0366 10.834C64.4302 10.4362 64.9211 10.2373 65.5093 10.2373C65.8267 10.2373 66.0785 10.2754 66.2646 10.3516V11.291ZM69.8447 20.1523C68.8841 20.1523 68.116 19.8498 67.5405 19.2446C66.9692 18.6353 66.6836 17.8291 66.6836 16.8262C66.6836 15.7344 66.9819 14.8817 67.5786 14.2681C68.1753 13.6545 68.9814 13.3477 69.9971 13.3477C70.9661 13.3477 71.7215 13.646 72.2632 14.2427C72.8091 14.8394 73.082 15.6667 73.082 16.7246C73.082 17.7614 72.7879 18.5929 72.1997 19.2192C71.6157 19.8413 70.8307 20.1523 69.8447 20.1523ZM69.9209 14.2236C69.2523 14.2236 68.7233 14.4521 68.334 14.9092C67.9447 15.362 67.75 15.9883 67.75 16.7881C67.75 17.5583 67.9468 18.1655 68.3403 18.6099C68.7339 19.0542 69.2607 19.2764 69.9209 19.2764C70.5938 19.2764 71.11 19.0584 71.4697 18.6226C71.8337 18.1867 72.0156 17.5667 72.0156 16.7627C72.0156 15.9502 71.8337 15.3239 71.4697 14.8838C71.11 14.4437 70.5938 14.2236 69.9209 14.2236ZM79.1758 19.7017C78.6764 20.0021 78.084 20.1523 77.3984 20.1523C76.4717 20.1523 75.7227 19.8519 75.1514 19.251C74.5843 18.6458 74.3008 17.863 74.3008 16.9023C74.3008 15.8317 74.6076 14.9727 75.2212 14.3252C75.8348 13.6735 76.6536 13.3477 77.6777 13.3477C78.249 13.3477 78.7526 13.4535 79.1885 13.665V14.7314C78.7061 14.3929 78.1898 14.2236 77.6396 14.2236C76.9753 14.2236 76.4294 14.4627 76.002 14.9409C75.5788 15.4149 75.3672 16.0391 75.3672 16.8135C75.3672 17.5752 75.5661 18.1761 75.9639 18.6162C76.3659 19.0563 76.9033 19.2764 77.5762 19.2764C78.1432 19.2764 78.6764 19.0881 79.1758 18.7114V19.7017ZM86.0059 20H84.9648V18.9717H84.9395C84.5078 19.7588 83.8392 20.1523 82.9336 20.1523C81.3848 20.1523 80.6104 19.2298 80.6104 17.3848V13.5H81.645V17.2197C81.645 18.5908 82.1698 19.2764 83.2192 19.2764C83.7271 19.2764 84.1439 19.0902 84.4697 18.7178C84.7998 18.3411 84.9648 17.8503 84.9648 17.2451V13.5H86.0059V20ZM87.7197 19.7651V18.6479C88.2868 19.0669 88.911 19.2764 89.5923 19.2764C90.5063 19.2764 90.9634 18.9717 90.9634 18.3623C90.9634 18.1888 90.9232 18.0428 90.8428 17.9243C90.7666 17.8016 90.6608 17.6937 90.5254 17.6006C90.3942 17.5075 90.2376 17.425 90.0557 17.353C89.8779 17.2769 89.6854 17.1986 89.478 17.1182C89.1903 17.0039 88.9364 16.8896 88.7163 16.7754C88.5005 16.6569 88.3185 16.5257 88.1704 16.3818C88.0265 16.2337 87.9165 16.0666 87.8403 15.8804C87.7684 15.6942 87.7324 15.4762 87.7324 15.2266C87.7324 14.9219 87.8022 14.6532 87.9419 14.4204C88.0815 14.1834 88.2677 13.9867 88.5005 13.8301C88.7332 13.6693 88.9977 13.5487 89.2939 13.4683C89.5944 13.3879 89.9033 13.3477 90.2207 13.3477C90.7835 13.3477 91.2871 13.445 91.7314 13.6396V14.6934C91.2533 14.3802 90.7031 14.2236 90.0811 14.2236C89.8864 14.2236 89.7108 14.2469 89.5542 14.2935C89.3976 14.3358 89.2622 14.3971 89.1479 14.4775C89.0379 14.5579 88.9512 14.6553 88.8877 14.7695C88.8285 14.8796 88.7988 15.0023 88.7988 15.1377C88.7988 15.307 88.8285 15.4487 88.8877 15.563C88.9512 15.6772 89.0422 15.7788 89.1606 15.8677C89.2791 15.9565 89.423 16.0369 89.5923 16.1089C89.7616 16.1808 89.9541 16.2591 90.1699 16.3438C90.4577 16.4538 90.7158 16.568 90.9443 16.6865C91.1729 16.8008 91.3675 16.932 91.5283 17.0801C91.6891 17.224 91.8118 17.3911 91.8965 17.5815C91.9854 17.772 92.0298 17.9984 92.0298 18.2607C92.0298 18.5824 91.9578 18.8617 91.814 19.0986C91.6743 19.3356 91.486 19.5324 91.249 19.689C91.012 19.8455 90.7391 19.9619 90.4302 20.0381C90.1213 20.1143 89.7975 20.1523 89.459 20.1523C88.7904 20.1523 88.2106 20.0233 87.7197 19.7651ZM96.8096 19.7651V18.6479C97.3766 19.0669 98.0008 19.2764 98.6821 19.2764C99.5962 19.2764 100.053 18.9717 100.053 18.3623C100.053 18.1888 100.013 18.0428 99.9326 17.9243C99.8564 17.8016 99.7507 17.6937 99.6152 17.6006C99.484 17.5075 99.3275 17.425 99.1455 17.353C98.9678 17.2769 98.7752 17.1986 98.5679 17.1182C98.2801 17.0039 98.0262 16.8896 97.8062 16.7754C97.5903 16.6569 97.4084 16.5257 97.2603 16.3818C97.1164 16.2337 97.0063 16.0666 96.9302 15.8804C96.8582 15.6942 96.8223 15.4762 96.8223 15.2266C96.8223 14.9219 96.8921 14.6532 97.0317 14.4204C97.1714 14.1834 97.3576 13.9867 97.5903 13.8301C97.8231 13.6693 98.0876 13.5487 98.3838 13.4683C98.6842 13.3879 98.9932 13.3477 99.3105 13.3477C99.8734 13.3477 100.377 13.445 100.821 13.6396V14.6934C100.343 14.3802 99.793 14.2236 99.1709 14.2236C98.9762 14.2236 98.8006 14.2469 98.644 14.2935C98.4875 14.3358 98.3521 14.3971 98.2378 14.4775C98.1278 14.5579 98.041 14.6553 97.9775 14.7695C97.9183 14.8796 97.8887 15.0023 97.8887 15.1377C97.8887 15.307 97.9183 15.4487 97.9775 15.563C98.041 15.6772 98.132 15.7788 98.2505 15.8677C98.369 15.9565 98.5129 16.0369 98.6821 16.1089C98.8514 16.1808 99.0439 16.2591 99.2598 16.3438C99.5475 16.4538 99.8057 16.568 100.034 16.6865C100.263 16.8008 100.457 16.932 100.618 17.0801C100.779 17.224 100.902 17.3911 100.986 17.5815C101.075 17.772 101.12 17.9984 101.12 18.2607C101.12 18.5824 101.048 18.8617 100.904 19.0986C100.764 19.3356 100.576 19.5324 100.339 19.689C100.102 19.8455 99.8289 19.9619 99.52 20.0381C99.2111 20.1143 98.8874 20.1523 98.5488 20.1523C97.8802 20.1523 97.3005 20.0233 96.8096 19.7651ZM107.95 17.0103H103.36C103.377 17.7339 103.572 18.2925 103.944 18.686C104.317 19.0796 104.829 19.2764 105.48 19.2764C106.213 19.2764 106.885 19.0352 107.499 18.5527V19.5303C106.928 19.945 106.172 20.1523 105.233 20.1523C104.315 20.1523 103.593 19.8582 103.068 19.27C102.544 18.6776 102.281 17.846 102.281 16.7754C102.281 15.764 102.567 14.9409 103.138 14.3062C103.714 13.6672 104.427 13.3477 105.277 13.3477C106.128 13.3477 106.786 13.6227 107.251 14.1729C107.717 14.723 107.95 15.4868 107.95 16.4644V17.0103ZM106.883 16.1279C106.879 15.527 106.733 15.0594 106.445 14.7251C106.162 14.3908 105.766 14.2236 105.258 14.2236C104.767 14.2236 104.351 14.3993 104.008 14.7505C103.665 15.1017 103.453 15.5609 103.373 16.1279H106.883ZM109.137 19.7651V18.6479C109.704 19.0669 110.328 19.2764 111.009 19.2764C111.923 19.2764 112.38 18.9717 112.38 18.3623C112.38 18.1888 112.34 18.0428 112.26 17.9243C112.184 17.8016 112.078 17.6937 111.942 17.6006C111.811 17.5075 111.655 17.425 111.473 17.353C111.295 17.2769 111.102 17.1986 110.895 17.1182C110.607 17.0039 110.353 16.8896 110.133 16.7754C109.917 16.6569 109.736 16.5257 109.587 16.3818C109.444 16.2337 109.333 16.0666 109.257 15.8804C109.185 15.6942 109.149 15.4762 109.149 15.2266C109.149 14.9219 109.219 14.6532 109.359 14.4204C109.499 14.1834 109.685 13.9867 109.917 13.8301C110.15 13.6693 110.415 13.5487 110.711 13.4683C111.011 13.3879 111.32 13.3477 111.638 13.3477C112.201 13.3477 112.704 13.445 113.148 13.6396V14.6934C112.67 14.3802 112.12 14.2236 111.498 14.2236C111.303 14.2236 111.128 14.2469 110.971 14.2935C110.815 14.3358 110.679 14.3971 110.565 14.4775C110.455 14.5579 110.368 14.6553 110.305 14.7695C110.245 14.8796 110.216 15.0023 110.216 15.1377C110.216 15.307 110.245 15.4487 110.305 15.563C110.368 15.6772 110.459 15.7788 110.578 15.8677C110.696 15.9565 110.84 16.0369 111.009 16.1089C111.179 16.1808 111.371 16.2591 111.587 16.3438C111.875 16.4538 112.133 16.568 112.361 16.6865C112.59 16.8008 112.785 16.932 112.945 17.0801C113.106 17.224 113.229 17.3911 113.313 17.5815C113.402 17.772 113.447 17.9984 113.447 18.2607C113.447 18.5824 113.375 18.8617 113.231 19.0986C113.091 19.3356 112.903 19.5324 112.666 19.689C112.429 19.8455 112.156 19.9619 111.847 20.0381C111.538 20.1143 111.215 20.1523 110.876 20.1523C110.207 20.1523 109.628 20.0233 109.137 19.7651ZM114.659 19.7651V18.6479C115.226 19.0669 115.85 19.2764 116.532 19.2764C117.446 19.2764 117.903 18.9717 117.903 18.3623C117.903 18.1888 117.863 18.0428 117.782 17.9243C117.706 17.8016 117.6 17.6937 117.465 17.6006C117.334 17.5075 117.177 17.425 116.995 17.353C116.817 17.2769 116.625 17.1986 116.417 17.1182C116.13 17.0039 115.876 16.8896 115.656 16.7754C115.44 16.6569 115.258 16.5257 115.11 16.3818C114.966 16.2337 114.856 16.0666 114.78 15.8804C114.708 15.6942 114.672 15.4762 114.672 15.2266C114.672 14.9219 114.742 14.6532 114.881 14.4204C115.021 14.1834 115.207 13.9867 115.44 13.8301C115.673 13.6693 115.937 13.5487 116.233 13.4683C116.534 13.3879 116.843 13.3477 117.16 13.3477C117.723 13.3477 118.227 13.445 118.671 13.6396V14.6934C118.193 14.3802 117.643 14.2236 117.021 14.2236C116.826 14.2236 116.65 14.2469 116.494 14.2935C116.337 14.3358 116.202 14.3971 116.087 14.4775C115.977 14.5579 115.891 14.6553 115.827 14.7695C115.768 14.8796 115.738 15.0023 115.738 15.1377C115.738 15.307 115.768 15.4487 115.827 15.563C115.891 15.6772 115.982 15.7788 116.1 15.8677C116.219 15.9565 116.362 16.0369 116.532 16.1089C116.701 16.1808 116.894 16.2591 117.109 16.3438C117.397 16.4538 117.655 16.568 117.884 16.6865C118.112 16.8008 118.307 16.932 118.468 17.0801C118.629 17.224 118.751 17.3911 118.836 17.5815C118.925 17.772 118.969 17.9984 118.969 18.2607C118.969 18.5824 118.897 18.8617 118.753 19.0986C118.614 19.3356 118.425 19.5324 118.188 19.689C117.951 19.8455 117.679 19.9619 117.37 20.0381C117.061 20.1143 116.737 20.1523 116.398 20.1523C115.73 20.1523 115.15 20.0233 114.659 19.7651ZM121.108 11.8496C120.922 11.8496 120.764 11.7861 120.632 11.6592C120.501 11.5322 120.436 11.3714 120.436 11.1768C120.436 10.9821 120.501 10.8213 120.632 10.6943C120.764 10.5632 120.922 10.4976 121.108 10.4976C121.299 10.4976 121.46 10.5632 121.591 10.6943C121.726 10.8213 121.794 10.9821 121.794 11.1768C121.794 11.363 121.726 11.5216 121.591 11.6528C121.46 11.784 121.299 11.8496 121.108 11.8496ZM121.616 20H120.575V13.5H121.616V20ZM126.44 20.1523C125.48 20.1523 124.712 19.8498 124.136 19.2446C123.565 18.6353 123.279 17.8291 123.279 16.8262C123.279 15.7344 123.578 14.8817 124.174 14.2681C124.771 13.6545 125.577 13.3477 126.593 13.3477C127.562 13.3477 128.317 13.646 128.859 14.2427C129.405 14.8394 129.678 15.6667 129.678 16.7246C129.678 17.7614 129.384 18.5929 128.795 19.2192C128.211 19.8413 127.426 20.1523 126.44 20.1523ZM126.517 14.2236C125.848 14.2236 125.319 14.4521 124.93 14.9092C124.54 15.362 124.346 15.9883 124.346 16.7881C124.346 17.5583 124.542 18.1655 124.936 18.6099C125.33 19.0542 125.856 19.2764 126.517 19.2764C127.189 19.2764 127.706 19.0584 128.065 18.6226C128.429 18.1867 128.611 17.5667 128.611 16.7627C128.611 15.9502 128.429 15.3239 128.065 14.8838C127.706 14.4437 127.189 14.2236 126.517 14.2236ZM136.736 20H135.695V16.293C135.695 14.9134 135.192 14.2236 134.185 14.2236C133.664 14.2236 133.232 14.4204 132.89 14.814C132.551 15.2033 132.382 15.6963 132.382 16.293V20H131.341V13.5H132.382V14.5791H132.407C132.898 13.7581 133.609 13.3477 134.54 13.3477C135.251 13.3477 135.795 13.5783 136.171 14.0396C136.548 14.4966 136.736 15.1589 136.736 16.0264V20Z" fill="white"/>
</svg>
