<svg width="2048px" height="2048px" viewBox="0 0 2048 2048" xmlns="http://www.w3.org/2000/svg" xmlns:xlink="http://www.w3.org/1999/xlink"><path transform="translate(0,2048) scale(1,-1)" d= "M2048 1713Q2048 1647 2023 1585Q1998 1523 1950 1475L633 158L0 0L158 633L1475 1950Q1523 1998 1585 2023Q1647 2048 1713 2048Q1782 2048 1843 2021.5Q1904 1995 1949.5 1949.5Q1995 1904 2021.5 1843Q2048 1782 2048 1713ZM1408 1701L326 620Q432 585 508.5 508.5Q585 432 620 326L1701 1408L1408 1701ZM258 505L176 176L505 258Q495 304 472.5 345Q450 386 418 418Q386 450 345 472.5Q304 495 258 505ZM1499 1792L1792 1499Q1817 1524 1840 1546Q1863 1568 1881 1592.5Q1899 1617 1909.5 1645.5Q1920 1674 1920 1712Q1920 1755 1903.5 1792.5Q1887 1830 1858.5 1858.5Q1830 1887 1792.5 1903.5Q1755 1920 1712 1920Q1674 1920 1645.5 1909.5Q1617 1899 1592.5 1881Q1568 1863 1546 1840Q1524 1817 1499 1792Z"></path></svg>