<svg width="2048px" height="2048px" viewBox="0 0 2048 2048" xmlns="http://www.w3.org/2000/svg" xmlns:xlink="http://www.w3.org/1999/xlink"><path transform="translate(0,2048) scale(1,-1)" d= "M1536 1152L1792 1152L1792 0L256 0L256 1152L512 1152L512 1526Q512 1634 551 1729Q590 1824 659 1895Q728 1966 821.5 2007Q915 2048 1024 2048Q1133 2048 1226.5 2007Q1320 1966 1389 1895Q1458 1824 1497 1729Q1536 1634 1536 1526L1536 1152ZM640 1526L640 1152L1408 1152L1408 1526Q1408 1607 1379 1678.5Q1350 1750 1298.5 1804Q1247 1858 1176.5 1889Q1106 1920 1024 1920Q942 1920 871.5 1889Q801 1858 749.5 1804Q698 1750 669 1678.5Q640 1607 640 1526ZM1664 128L1664 1024L384 1024L384 128L1664 128Z"></path></svg>