<svg width="52" height="52" viewBox="0 0 52 52" fill="none" xmlns="http://www.w3.org/2000/svg">
<mask id="mask0" mask-type="alpha" maskUnits="userSpaceOnUse" x="2" y="2" width="48" height="48">
<path d="M50 26C50 12.7452 39.2548 2 26 2C12.7452 2 2 12.7452 2 26C2 39.2548 12.7452 50 26 50C39.2548 50 50 39.2548 50 26Z" fill="white"/>
</mask>
<g mask="url(#mask0)">
<path d="M50 26C50 12.7452 39.2548 2 26 2C12.7452 2 2 12.7452 2 26C2 39.2548 12.7452 50 26 50C39.2548 50 50 39.2548 50 26Z" fill="#965596"/>
<mask id="mask1" mask-type="alpha" maskUnits="userSpaceOnUse" x="12" y="14" width="28" height="24">
<path d="M16.016 16.6247C15.2464 16.9 14.2626 17.7514 13.9029 18.4711C11.4542 23.5529 11.4542 28.6347 13.9029 33.7161C14.263 34.4359 15.2464 35.2872 16.016 35.5625C22.6348 37.8312 29.2536 37.8312 35.8724 35.5625C36.6421 35.2876 37.6254 34.4359 37.9855 33.7161C40.4342 28.6347 40.4342 23.5529 37.9855 18.4711C37.6254 17.7514 36.6416 16.9 35.8724 16.6251C32.5624 15.4906 29.2536 14.9238 25.9435 14.9238C22.6348 14.9238 19.3252 15.4906 16.016 16.6247Z" fill="white"/>
</mask>
<g mask="url(#mask1)">
<path fill-rule="evenodd" clip-rule="evenodd" d="M14.0198 16.0702C21.969 10.3901 29.9186 10.3901 37.8673 16.0702C44.6242 22.7528 44.6242 29.4355 37.8673 36.1181C29.9186 41.7982 21.969 41.7982 14.0198 36.1181C7.26292 29.4355 7.26292 22.7528 14.0198 16.0702Z" fill="#2E3F4B"/>
</g>
<mask id="mask2" mask-type="alpha" maskUnits="userSpaceOnUse" x="13" y="18" width="26" height="19">
<path d="M15.1865 19.703C14.7499 19.7904 14.2871 20.1781 14.1756 20.557C12.9 24.9413 13.139 29.3251 14.8928 33.7094C15.0466 34.0879 15.5186 34.5013 15.9246 34.6175C22.6055 36.4928 29.2873 36.4928 35.9682 34.6175C36.3742 34.5013 36.8462 34.0879 37 33.7094C38.7542 29.3251 38.9929 24.9413 37.7176 20.557C37.6057 20.1785 37.1434 19.7904 36.7068 19.703C33.1201 18.9998 29.5333 18.648 25.9466 18.648C22.3599 18.648 18.7732 18.9998 15.1865 19.703Z" fill="white"/>
</mask>
<g mask="url(#mask2)">
<path fill-rule="evenodd" clip-rule="evenodd" d="M12.8128 18.2201C21.5678 14.639 30.3228 14.639 39.0779 18.2201C42.8892 24.0868 42.4412 29.9539 37.734 35.8206C29.8749 40.2434 22.0157 40.2434 14.1566 35.8206C9.44937 29.9539 9.00141 24.0868 12.8128 18.2201Z" fill="#DFE1DF"/>
</g>
<mask id="mask3" mask-type="alpha" maskUnits="userSpaceOnUse" x="15" y="17" width="2" height="2">
<path d="M16.1081 17.5205C15.8022 17.6057 15.4534 17.9138 15.3389 18.204C15.2244 18.4929 15.3992 18.6651 15.7196 18.5917C16.0408 18.5187 16.3751 18.218 16.4752 17.9165C16.5582 17.6656 16.4616 17.4987 16.2505 17.4987C16.2077 17.4987 16.1601 17.5056 16.1081 17.5205Z" fill="white"/>
</mask>
<g mask="url(#mask3)">
<path fill-rule="evenodd" clip-rule="evenodd" d="M14.4806 16.1881C16.3659 15.1563 18.2517 14.3792 20.1371 13.8565C19.4037 16.1925 18.8797 18.5284 18.5664 20.8648C16.171 21.0881 13.7752 21.4202 11.3794 21.8612C11.9987 19.9702 13.0322 18.0791 14.4806 16.1881Z" fill="#DF5140"/>
</g>
<mask id="mask4" mask-type="alpha" maskUnits="userSpaceOnUse" x="17" y="16" width="2" height="3">
<path d="M18.3316 16.9772C18.0252 17.0437 17.6983 17.3522 17.6083 17.6625C17.5178 17.9719 17.7106 18.1738 18.0309 18.117C18.3521 18.0602 18.6685 17.7591 18.7446 17.44C18.8106 17.1599 18.679 16.965 18.44 16.965C18.4059 16.965 18.3696 16.9689 18.3316 16.9772Z" fill="white"/>
</mask>
<g mask="url(#mask4)">
<path fill-rule="evenodd" clip-rule="evenodd" d="M16.4332 15.2102C18.3186 14.3544 20.2043 13.7531 22.0897 13.4065C21.6033 15.8285 21.2558 18.2506 21.0478 20.6726C18.6524 20.8207 16.2566 21.0777 13.8608 21.4435C14.3744 19.3654 15.2318 17.2878 16.4332 15.2102Z" fill="#EDB051"/>
</g>
<mask id="mask5" mask-type="alpha" maskUnits="userSpaceOnUse" x="19" y="16" width="3" height="2">
<path d="M20.5619 16.5711C20.2555 16.6179 19.95 16.9238 19.884 17.2494C19.8185 17.5741 20.0291 17.8014 20.3495 17.7616C20.6707 17.7214 20.9687 17.4238 21.0203 17.0916C21.0679 16.7883 20.9014 16.565 20.6383 16.565C20.6139 16.565 20.5885 16.5672 20.5619 16.5711Z" fill="white"/>
</mask>
<g mask="url(#mask5)">
<path fill-rule="evenodd" clip-rule="evenodd" d="M18.391 14.4138C20.2764 13.7337 22.1622 13.3085 24.0475 13.1381C23.808 15.6112 23.6371 18.0844 23.5349 20.5575C21.1391 20.6305 18.7433 20.8123 16.3479 21.1029C16.7556 18.8732 17.4365 16.6435 18.391 14.4138Z" fill="#7BB45A"/>
</g>
<mask id="mask6" mask-type="alpha" maskUnits="userSpaceOnUse" x="22" y="16" width="15" height="3">
<path d="M23.5298 16.2469C23.223 16.2684 22.9464 16.5642 22.9123 16.902C22.8791 17.2403 23.1134 17.4964 23.4346 17.4781C27.8071 17.2298 32.18 17.631 36.5529 18.6834C36.8737 18.759 37.0446 18.5929 36.9261 18.3075C36.8081 18.0217 36.4568 17.7136 36.15 17.6245C32.7468 16.6516 29.3445 16.1656 25.9409 16.1656C25.1377 16.1656 24.3331 16.1927 23.5298 16.2469Z" fill="white"/>
</mask>
<g mask="url(#mask6)">
<path fill-rule="evenodd" clip-rule="evenodd" d="M20.9957 13.636C26.5744 12.3188 32.1522 13.23 37.7309 16.3692C39.2203 18.2257 40.2836 20.0822 40.9199 21.9387C33.8326 20.597 26.7448 20.2076 19.6575 20.7705C19.9249 18.3922 20.3707 16.0138 20.9957 13.636Z" fill="#697D84"/>
</g>
<mask id="mask7" mask-type="alpha" maskUnits="userSpaceOnUse" x="15" y="20" width="9" height="7">
<path d="M23.035 20.7666C20.8196 20.8448 18.6048 21.0122 16.3895 21.2683C16.1618 21.2954 15.9433 21.4829 15.9092 21.6848C15.6382 23.2774 15.5141 24.869 15.5368 26.4611C15.5394 26.663 15.7396 26.8317 15.9778 26.8361C18.2884 26.8759 20.5994 26.9012 22.9095 26.913C23.1477 26.9148 23.3413 26.7308 23.3409 26.5044C23.3352 24.7244 23.3662 22.9439 23.434 21.1643C23.4423 20.9423 23.2705 20.7662 23.0494 20.7662C23.045 20.7662 23.0398 20.7666 23.035 20.7666Z" fill="white"/>
</mask>
<g mask="url(#mask7)">
<path fill-rule="evenodd" clip-rule="evenodd" d="M13.8455 19.2056C18.0305 18.0955 22.215 17.5619 26.4 17.6039C26.4529 21.7469 26.4669 25.8904 26.4424 30.0339C21.8706 30.0535 17.2989 29.8053 12.7271 29.2905C12.0812 25.9289 12.4539 22.5672 13.8455 19.2056Z" fill="#C4CACA"/>
</g>
<mask id="mask8" mask-type="alpha" maskUnits="userSpaceOnUse" x="24" y="20" width="12" height="3">
<path d="M25.1089 20.721C24.8794 20.7231 24.6898 20.9111 24.6854 21.1392C24.6806 21.3673 24.8655 21.5496 25.0984 21.5478C28.6029 21.5181 32.1075 21.6728 35.612 22.0119C35.8454 22.0342 36.0075 21.8887 35.973 21.6859C35.9381 21.4831 35.7217 21.2965 35.4923 21.2694C32.3068 20.9006 29.1217 20.7166 25.9366 20.7166C25.6608 20.7166 25.3846 20.7183 25.1089 20.721Z" fill="white"/>
</mask>
<g mask="url(#mask8)">
<path fill-rule="evenodd" clip-rule="evenodd" d="M21.9907 17.7744C27.339 17.3111 32.6883 17.7888 38.0367 19.2074C38.826 21.1151 39.2875 23.0223 39.4212 24.9299C33.4605 24.69 27.499 24.6091 21.5383 24.6873C21.582 22.3829 21.7328 20.0784 21.9907 17.7744Z" fill="#C4CACA"/>
</g>
<mask id="mask9" mask-type="alpha" maskUnits="userSpaceOnUse" x="24" y="23" width="13" height="2">
<path d="M25.086 23.2C24.8487 23.2013 24.6551 23.3879 24.6533 23.6161C24.6507 23.8446 24.8421 24.0277 25.0803 24.0269C28.6718 24.0133 32.2634 24.0837 35.8549 24.2375C36.0931 24.248 36.2744 24.0924 36.2574 23.8892C36.2395 23.6869 36.0314 23.5103 35.795 23.4954C32.5077 23.297 29.2203 23.1978 25.933 23.1978C25.6507 23.1978 25.3683 23.1987 25.086 23.2Z" fill="white"/>
</mask>
<g mask="url(#mask9)">
<path fill-rule="evenodd" clip-rule="evenodd" d="M21.7606 20.2054C27.4237 19.8776 33.0872 20.2155 38.7502 21.2193C39.3092 23.127 39.5399 25.0346 39.4429 26.9418C33.4735 27.1166 27.5041 27.1752 21.5347 27.1184C21.5028 24.8139 21.5784 22.5094 21.7606 20.2054Z" fill="#C4CACA"/>
</g>
<mask id="mask10" mask-type="alpha" maskUnits="userSpaceOnUse" x="24" y="25" width="13" height="2">
<path d="M25.0728 25.682C24.8329 25.682 24.6384 25.8673 24.6384 26.0954C24.6384 26.324 24.8329 26.5084 25.0728 26.5088C28.6858 26.5114 32.2983 26.497 35.9116 26.4664C36.1516 26.4642 36.3478 26.2982 36.3478 26.0954C36.3478 25.8926 36.1516 25.7265 35.9116 25.7239C32.5928 25.6955 29.2744 25.6815 25.9556 25.6815C25.6615 25.6815 25.367 25.6815 25.0728 25.682Z" fill="white"/>
</mask>
<g mask="url(#mask10)">
<path fill-rule="evenodd" clip-rule="evenodd" d="M21.6069 22.6386C27.4771 22.4463 33.3473 22.6447 39.2175 23.2338C39.5453 25.1415 39.5453 27.0491 39.2175 28.9563C33.3473 29.5459 27.4771 29.7443 21.6069 29.5516C21.4998 27.2471 21.4998 24.9426 21.6069 22.6386Z" fill="#C4CACA"/>
</g>
<mask id="mask11" mask-type="alpha" maskUnits="userSpaceOnUse" x="15" y="27" width="22" height="2">
<path d="M15.6291 28.2985C15.6466 28.5013 15.8551 28.6779 16.0915 28.6923C22.6596 29.0891 29.2278 29.0891 35.7963 28.6923C36.0328 28.6779 36.2408 28.5013 36.2587 28.2985C36.2753 28.1019 36.1057 27.9498 35.878 27.9498C35.8711 27.9498 35.8636 27.9498 35.8562 27.9502C29.2474 28.2338 22.6395 28.2338 16.0316 27.9502C16.0246 27.9498 16.0172 27.9498 16.0102 27.9498C15.7821 27.9498 15.6121 28.1019 15.6291 28.2985Z" fill="white"/>
</mask>
<g mask="url(#mask11)">
<path fill-rule="evenodd" clip-rule="evenodd" d="M12.4416 25.2461C21.4418 24.9831 30.442 24.9831 39.4427 25.2461C39.5397 27.1538 39.3089 29.061 38.75 30.9691C30.2113 32.4825 21.6726 32.4825 13.1339 30.9691C12.5753 29.061 12.3441 27.1538 12.4416 25.2461Z" fill="#C4CACA"/>
</g>
<mask id="mask12" mask-type="alpha" maskUnits="userSpaceOnUse" x="15" y="30" width="21" height="2">
<path d="M15.9076 30.5023C15.9421 30.7051 16.1585 30.8921 16.3879 30.9188C22.7567 31.6556 29.1252 31.6556 35.4936 30.9188C35.723 30.8921 35.9393 30.7051 35.9743 30.5023C36.0088 30.2999 35.8463 30.1544 35.6133 30.1763C29.1645 30.7999 22.7165 30.7999 16.2682 30.1763C16.2524 30.1749 16.2371 30.1741 16.2223 30.1741C16.0142 30.1741 15.8748 30.3135 15.9076 30.5023Z" fill="white"/>
</mask>
<g mask="url(#mask12)">
<path fill-rule="evenodd" clip-rule="evenodd" d="M12.4607 27.2598C21.4482 27.6216 30.4358 27.6216 39.4229 27.2598C39.29 29.167 38.8281 31.0746 38.0383 32.9822C29.9738 35.1206 21.9097 35.1206 13.8452 32.9822C13.0555 31.0746 12.5944 29.167 12.4607 27.2598Z" fill="#C4CACA"/>
</g>
<mask id="mask13" mask-type="alpha" maskUnits="userSpaceOnUse" x="16" y="32" width="20" height="2">
<path d="M35.1972 32.4043C29.0286 33.3684 22.859 33.3684 16.6903 32.4043C16.4674 32.3702 16.3267 32.5053 16.3791 32.7076C16.4311 32.9108 16.6523 33.1075 16.8699 33.1473C22.9193 34.2245 28.9682 34.2245 35.0172 33.1473C35.2353 33.1075 35.4564 32.9108 35.508 32.7076C35.5552 32.5258 35.4477 32.3991 35.2641 32.3991C35.2427 32.3991 35.2204 32.4008 35.1972 32.4043Z" fill="white"/>
</mask>
<g mask="url(#mask13)">
<path fill-rule="evenodd" clip-rule="evenodd" d="M12.7258 29.273C21.5381 30.2603 30.3508 30.2603 39.1631 29.273C38.7986 31.1806 38.1064 33.0879 37.0859 34.9959C29.6586 37.7597 22.2308 37.7597 14.8026 34.9959C13.7826 33.0879 13.0899 31.1806 12.7258 29.273Z" fill="#C4CACA"/>
</g>
<g filter="url(#filter0_d)">
<path d="M10.4546 26.0041C10.4546 17.4307 17.4256 10.4553 26.0033 10.4553C34.5725 10.4553 41.5521 17.4307 41.5521 26.0041C41.5521 34.5776 34.5725 41.5529 26.0033 41.5529C17.4256 41.5529 10.4546 34.5776 10.4546 26.0041ZM40.6019 38.1572C43.3489 34.8609 45.0074 30.623 45.0074 26.0041C45.0074 15.5251 36.4815 7.00006 26.0033 7.00006C15.5252 7.00006 6.99927 15.5251 6.99927 26.0041C6.99927 36.4832 15.5252 45.0082 26.0033 45.0082C30.6248 45.0082 34.8575 43.3505 38.1573 40.6001L40.5171 42.9573L42.9531 40.5144L40.6019 38.1572Z" fill="black"/>
</g>
<path d="M10.4546 26.0041C10.4546 17.4307 17.4256 10.4553 26.0033 10.4553C34.5725 10.4553 41.5521 17.4307 41.5521 26.0041C41.5521 34.5776 34.5725 41.5529 26.0033 41.5529C17.4256 41.5529 10.4546 34.5776 10.4546 26.0041ZM40.6019 38.1572C43.3489 34.8609 45.0074 30.623 45.0074 26.0041C45.0074 15.5251 36.4815 7.00006 26.0033 7.00006C15.5252 7.00006 6.99927 15.5251 6.99927 26.0041C6.99927 36.4832 15.5252 45.0082 26.0033 45.0082C30.6248 45.0082 34.8575 43.3505 38.1573 40.6001L40.5171 42.9573L42.9531 40.5144L40.6019 38.1572Z" fill="#30404D"/>
<g opacity="0.3">
<path opacity="0.3" fill-rule="evenodd" clip-rule="evenodd" d="M41.5524 26.0041C41.5524 34.5914 34.59 41.5529 26.0036 41.5529C17.4172 41.5529 10.4548 34.5914 10.4548 26.0041C10.4548 17.4178 17.4172 10.4554 26.0036 10.4554C34.59 10.4554 41.5524 17.4178 41.5524 26.0041Z" fill="#C7E7F1"/>
<path opacity="0.3" fill-rule="evenodd" clip-rule="evenodd" d="M35.1247 13.4299C36.982 15.9937 38.0963 19.138 38.0963 22.5492C38.0963 31.1365 31.1339 38.098 22.5475 38.098C19.1354 38.098 15.9911 36.9863 13.4255 35.1239C16.2502 39.0137 20.8285 41.5533 26.0028 41.5533C34.5892 41.5533 41.5516 34.5918 41.5516 26.0045C41.5516 20.8285 39.0119 16.2563 35.1247 13.4299Z" fill="#ABDCEC"/>
</g>
<path fill-rule="evenodd" clip-rule="evenodd" d="M37.0169 41.4835C37.6993 40.9954 38.6322 41.0758 39.2283 41.6692L41.7349 41.7364L36.991 36.9942C33.8294 40.1549 29.3202 41.9646 24.4137 41.4731C17.1404 40.7458 11.2577 34.8657 10.5321 27.5958C10.0398 22.6859 11.8538 18.175 15.0154 15.0151L12.5707 12.5731C8.48487 16.6633 6.23893 22.6047 7.23233 29.0168C8.49351 37.1903 15.119 43.6871 23.3081 44.8213C28.4305 45.5313 33.2334 44.1812 37.0169 41.4835Z" fill="#182A37"/>
<path fill-rule="evenodd" clip-rule="evenodd" d="M43.891 51.0005L38.0696 45.1775C37.3785 44.4873 37.3785 43.3566 38.0696 42.6655L42.6651 38.0717C43.3561 37.3806 44.4878 37.3806 45.1788 38.0717L50.9993 43.8938V51.0005H43.891Z" fill="#DF5142"/>
<path fill-rule="evenodd" clip-rule="evenodd" d="M43.8927 51.0004L37.9067 45.0124C37.9067 44.9977 37.9067 44.9899 37.9067 44.9752L40.2218 42.6619C40.8956 41.9873 41.984 41.9873 42.6578 42.6619L51.0006 50.9993L43.8927 51.0004Z" fill="#C2423D"/>
</g>
<path d="M50 26C50 12.7452 39.2548 2 26 2C12.7452 2 2 12.7452 2 26C2 39.2548 12.7452 50 26 50C39.2548 50 50 39.2548 50 26Z" stroke="#742774" stroke-width="4"/>
<defs>
<filter id="filter0_d" x="2.99927" y="5.00006" width="46.0082" height="46.0082" filterUnits="userSpaceOnUse" color-interpolation-filters="sRGB">
<feFlood flood-opacity="0" result="BackgroundImageFix"/>
<feColorMatrix in="SourceAlpha" type="matrix" values="0 0 0 0 0 0 0 0 0 0 0 0 0 0 0 0 0 0 127 0"/>
<feOffset dy="2"/>
<feGaussianBlur stdDeviation="2"/>
<feColorMatrix type="matrix" values="0 0 0 0 0 0 0 0 0 0 0 0 0 0 0 0 0 0 0.1 0"/>
<feBlend mode="normal" in2="BackgroundImageFix" result="effect1_dropShadow"/>
<feBlend mode="normal" in="SourceGraphic" in2="effect1_dropShadow" result="shape"/>
</filter>
</defs>
</svg>
