<svg id="Layer_1" xmlns="http://www.w3.org/2000/svg" viewBox="0 0 566.9 67" enable-background="new 0 0 566.9 67" width="2500" height="295"><style>.st0{filter:url(#Adobe_OpacityMaskFilter)}.st1{fill:#fff}.st2{mask:url(#mask-2);fill:#181916}</style><title>logo-rijksmuseum</title><g id="Page-1"><g id="logo-rijksmuseum" transform="translate(0 1)"><defs><filter id="Adobe_OpacityMaskFilter" filterUnits="userSpaceOnUse" x="0" y="-1" width="566.9" height="67"><feColorMatrix values="1 0 0 0 0 0 1 0 0 0 0 0 1 0 0 0 0 0 1 0"/></filter></defs><mask maskUnits="userSpaceOnUse" x="0" y="-1" width="566.9" height="67" id="mask-2"><g class="st0"><path id="path-1" class="st1" d="M.1-1H567v67H.1V-1z"/></g></mask><path id="Fill-1" class="st2" d="M511.2.1h12.5c2.7 4.9 5.4 9.7 8.1 14.6 2.5 4.6 5.2 9.1 7.3 13.9 2-4.6 4.5-8.9 6.9-13.3 2.8-5.1 5.6-10.1 8.4-15.2h12.4v64.8h-10.9V35.2c0-6.6-.3-13.3.7-19.9-1.1 3.2-2.6 6.3-4.3 9.3-3 5.4-6 10.7-9 16h-8.6c-1.9-3.3-3.8-6.6-5.6-10-2.8-5-5.9-9.9-7.7-15.4.7 4.3.8 8.7.7 13v36.6h-11V.1h.1zm-58.4 36.3V.1h11v40.1c0 2.5 0 5.1.7 7.6.6 2.1 1.8 4.2 3.7 5.4 2.4 1.7 5.5 2.1 8.3 2 3 0 6.3-.6 8.6-2.7 2.1-1.9 3-4.7 3.3-7.4.2-2.5.2-5 .2-7.5V.1h10.9v37.8c0 4 .2 8.1-.6 12-.8 4.2-2.8 8.4-6.1 11.2-3.9 3.4-9.2 4.5-14.2 4.9h-4.8c-4-.3-8.1-1-11.6-3.1-4-2.2-6.8-6.2-8-10.5-1.8-5.1-1.4-10.6-1.4-16zM405.3.1h37.9v10.4h-26.8V26h25.8v10.4h-25.8v18h26.8v10.4h-37.9V.1zM298.4.1h11V42c0 3.3.4 6.8 2.5 9.5 1.8 2.4 4.8 3.4 7.7 3.7 3 .2 6.3.1 9-1.3 2.2-1.1 3.8-3.1 4.5-5.4 1.1-3.1.9-6.5.9-9.7V.1h11v41c0 3.2-.1 6.5-.8 9.6-.9 4.2-3 8.2-6.5 10.9-3.9 3.1-8.9 4.2-13.7 4.5h-4.9c-4.6-.3-9.4-1.3-13.2-4.1-3.5-2.5-5.7-6.4-6.7-10.4-1.3-4.7-1-9.6-1-14.5.2-12.4.2-24.7.2-37zm-67.5 0h12.5c3.2 5.7 6.3 11.4 9.5 17 2.1 3.7 4.2 7.4 5.9 11.3.7-1.1 1.1-2.3 1.7-3.4 2-4 4.3-7.9 6.4-11.8 2.4-4.4 4.9-8.7 7.3-13.1h12.5v64.8h-10.9V23.3c0-2.6.3-5.3.6-7.9-1.3 3.4-2.8 6.7-4.7 9.8-2.9 5.1-5.8 10.2-8.6 15.3h-8.6l-9-15.9c-1.3-2.3-2.5-4.7-3.5-7.2-.3-.7-.5-1.5-.9-2.1.5 3.2.7 6.4.7 9.6v39.9H231c-.1-21.5-.1-43.1-.1-64.7zM112.8.1h11v26.6c6.8-8.7 13.6-17.3 20.3-26 .2-.3.4-.7.9-.6h13.4c-.1.3-.2.6-.4.8-8.1 10.1-16.2 20.2-24.4 30.3 8.4 10.9 16.8 21.9 25.3 32.8.2.3.3.5.4.9h-13.8c-7.3-9.6-14.5-19.3-21.7-28.9-.1 9.6 0 19.2 0 28.9h-11V.1zM87 .1h11v40.1c0 2.9.1 5.9-.4 8.7-.7 4.7-2.9 9.2-6.6 12.2-3.8 3.3-9 4.6-14 4.9h-4.6c-5.7-.3-11.4-1.8-16.4-4.6V50.1c.5.1.9.3 1.4.5 6 3.1 12.7 5.1 19.5 4.4 2.7-.3 5.5-1.2 7.4-3.2 2-2.1 2.8-5.1 2.8-7.9C87 29.3 87 14.7 87 .1zm-31 0h11v40.3H56.1C56 27 56 13.5 56 .1zM11 10.4v20.3h8.2c3.2-.2 6.7-.6 9.3-2.7 2.2-1.7 3-4.6 3-7.3.1-2.6-.6-5.5-2.6-7.3-2.1-1.9-4.9-2.6-7.6-2.8-3.5-.3-6.9-.2-10.3-.2zM0 .1h18C22.5 0 27.2.4 31.5 2c4 1.4 7.5 4.3 9.3 8.2 2.2 4.8 2.4 10.3 1.6 15.5-.8 4.8-3.7 9.2-8 11.6 3.8 9.2 7.8 18.4 11.5 27.7H34c-3.2-8.1-6.4-16.3-9.6-24.5-4.4.7-8.9.3-13.3.4V65H0V.1zM375.4-1h4.3c4.6.4 9.3 1.3 13.3 3.8v11.3c-1.9-1-3.7-2-5.8-2.7-4.3-1.5-9-2.2-13.5-1.5-2.1.4-4.2 1-5.8 2.5-3 2.7-3 8.2.3 10.7 2.9 2.3 6.6 3.2 10 4.5 4.7 1.6 9.5 3.4 12.8 7.2 3.3 3.7 4.2 8.9 3.7 13.6-.4 4.7-2.6 9.2-6.2 12.2-4.2 3.5-9.6 5.1-15 5.5h-4.3c-5.2-.4-10.6-1.6-15.1-4.4V50.4c5.4 3.1 11.5 5.2 17.8 5.1 3.1-.1 6.3-.7 8.8-2.7 3-2.4 3.7-7.4 1.2-10.4-1.9-2.2-4.8-3.2-7.5-4.2-4.5-1.6-9.2-2.9-13.2-5.6-3.1-2.1-5.5-5.2-6.3-8.9-1-4.1-.9-8.6.6-12.6 1.2-3.2 3.5-6 6.4-7.9 4-2.7 8.8-3.9 13.5-4.2zM184.7-1h4.3c4.6.4 9.3 1.4 13.3 3.8V14c-1.1-.5-2.2-1.2-3.3-1.7-4.8-2.2-10.2-3.3-15.5-2.6-2.4.3-4.8 1.1-6.5 2.8-1.9 1.9-2.4 4.9-1.6 7.4.7 2.2 2.7 3.7 4.7 4.6 5.7 2.7 12.1 3.7 17.3 7.4 3.1 2.1 5.4 5.3 6.2 8.9 1.2 5.2.7 11.1-2.3 15.7-2.4 3.8-6.3 6.4-10.4 7.8-2.6.9-5.3 1.3-8 1.6h-4.3c-5.3-.4-10.6-1.6-15.2-4.4V50.2c1.5.7 2.9 1.6 4.4 2.2 4.7 2 9.8 3.3 14.9 2.8 2.8-.3 5.7-1 7.7-3 2.3-2.1 2.9-5.7 1.7-8.5-.9-2.1-3-3.4-5-4.3-2.9-1.3-5.9-2.2-8.9-3.3-4.2-1.5-8.6-3.5-11.4-7.2-2.9-3.6-3.6-8.5-3.2-13 .4-4.2 2.2-8.2 5.3-11.1 4.3-3.7 10.2-5.4 15.8-5.8z"/></g></g></svg>