<svg fill="none" height="120" viewBox="0 0 120 120" width="120" xmlns="http://www.w3.org/2000/svg"><path d="m83.9029 44.7354v-5.8234l-10.1139-10.1297h-36.8919v15.9531l-8.8971 7.9014v38.0456c.04.3817.2277.7325.523.9776s.6748.365 1.0573.334h61.3628c.4475.0376.892-.102 1.2377-.3886.3457-.2867.5652-.6975.6112-1.1443v-37.8243z" fill="#fff" stroke="#008481" stroke-linecap="round" stroke-linejoin="round" stroke-width="3"/><path d="m73.797 40.271c-.4961-.0021-.9712-.2001-1.3219-.5508s-.5487-.8258-.5508-1.3219v-8.7469c.0021-.3339.1362-.6534.3731-.8888s.5572-.3675.8912-.3675c.1635.0006.3252.0338.4758.0975.1506.0638.287.1569.4012.2739l9.3633 9.3632c.1782.1742.3002.3977.3504.6418.0501.2441.026.4976-.0692.728-.0952.2303-.2571.4268-.4649.5643-.2079.1375-.4521.2097-.7013.2072z" fill="#008481"/><g stroke-linecap="round"><path d="m44.2295 48.6465h31.8192" stroke="#57b520" stroke-miterlimit="10" stroke-width="1.5"/><path d="m44.2295 56.0976h31.8192" stroke="#00c1bf" stroke-linejoin="round" stroke-width="1.5"/><path d="m44.2295 40.8715h6.4397 6.7478" stroke="#00c1bf" stroke-linejoin="round" stroke-width="1.5"/></g><path d="m89.6313 57.994v30.8394h-30.8315z" fill="#00c1bf" opacity=".15"/><path d="m36.897 41.1876v15.5501" stroke="#008481" stroke-linecap="round" stroke-miterlimit="10" stroke-width="3"/><path d="m83.9028 41.1876v15.5501" stroke="#008481" stroke-linecap="round" stroke-miterlimit="10" stroke-width="3"/><path d="m32.2588 59.0607 28.4295 14.9495 27.8527-14.9495" stroke="#00c1bf" stroke-linecap="round" stroke-linejoin="round" stroke-width="1.5"/></svg>