<svg id="_x31__x2C_5" enable-background="new 0 0 24 24" height="512" viewBox="0 0 24 24" width="512" xmlns="http://www.w3.org/2000/svg"><g><path d="m21.25 20h-4.18c-.414 0-.75-.336-.75-.75s.336-.75.75-.75h3.654l1.455-4h-20.359l1.455 4h3.655c.414 0 .75.336.75.75s-.336.75-.75.75h-4.18c-.315 0-.597-.197-.705-.494l-2-5.5c-.083-.23-.05-.486.091-.687.14-.2.369-.319.614-.319h22.5c.245 0 .474.119.614.32.141.2.174.457.091.687l-2 5.5c-.108.296-.39.493-.705.493z"/></g><g><path d="m16.251 24c-.038 0-.076-.003-.115-.009-.409-.063-.69-.446-.627-.855l.867-5.636h-8.752l.867 5.636c.063.41-.218.792-.627.855-.409.067-.793-.217-.855-.627l-1-6.5c-.033-.216.029-.437.172-.603s.35-.261.569-.261h10.5c.219 0 .427.096.569.262s.205.386.172.603l-1 6.5c-.056.37-.376.635-.74.635z"/></g><g><path d="m22.5 14.25c-.414 0-.75-.336-.75-.75 0-1.979-1.058-3.852-2.761-4.889-.354-.216-.466-.677-.25-1.031s.677-.466 1.031-.25c2.146 1.308 3.479 3.672 3.479 6.17.001.414-.335.75-.749.75z"/></g><g><circle cx="18.5" cy="7.5" r="1.5"/></g><g><path d="m12 8c-2.206 0-4-1.794-4-4s1.794-4 4-4 4 1.794 4 4-1.794 4-4 4zm0-6.5c-1.379 0-2.5 1.122-2.5 2.5s1.121 2.5 2.5 2.5 2.5-1.122 2.5-2.5-1.121-2.5-2.5-2.5z"/></g><g><path d="m19.5 14.5c-.414 0-.75-.336-.75-.75 0-1.792-1.458-3.25-3.25-3.25h-7c-1.792 0-3.25 1.458-3.25 3.25 0 .414-.336.75-.75.75s-.75-.336-.75-.75c0-2.619 2.131-4.75 4.75-4.75h7c2.619 0 4.75 2.131 4.75 4.75 0 .414-.336.75-.75.75z"/></g></svg>