<svg height="512pt" viewBox="0 -69 512 512" width="512pt" xmlns="http://www.w3.org/2000/svg"><path d="m42.183594 182.460938h54.882812c4.144532 0 7.5-3.359376 7.5-7.5 0-4.140626-3.355468-7.5-7.5-7.5h-54.882812c-4.144532 0-7.5 3.359374-7.5 7.5 0 4.140624 3.355468 7.5 7.5 7.5zm0 0"/><path d="m42.183594 228.886719h54.882812c4.144532 0 7.5-3.359375 7.5-7.5 0-4.144531-3.355468-7.5-7.5-7.5h-54.882812c-4.144532 0-7.5 3.355469-7.5 7.5 0 4.140625 3.355468 7.5 7.5 7.5zm0 0"/><path d="m42.183594 275.308594h54.882812c4.144532 0 7.5-3.355469 7.5-7.5 0-4.140625-3.355468-7.5-7.5-7.5h-54.882812c-4.144532 0-7.5 3.359375-7.5 7.5 0 4.144531 3.355468 7.5 7.5 7.5zm0 0"/><path d="m42.183594 321.734375h54.882812c4.144532 0 7.5-3.359375 7.5-7.5s-3.355468-7.5-7.5-7.5h-54.882812c-4.144532 0-7.5 3.359375-7.5 7.5s3.355468 7.5 7.5 7.5zm0 0"/><path d="m221.316406 167.460938h-54.882812c-4.144532 0-7.5 3.359374-7.5 7.5 0 4.140624 3.355468 7.5 7.5 7.5h54.882812c4.144532 0 7.5-3.359376 7.5-7.5 0-4.140626-3.355468-7.5-7.5-7.5zm0 0"/><path d="m221.316406 213.886719h-54.882812c-4.144532 0-7.5 3.355469-7.5 7.5 0 4.140625 3.355468 7.5 7.5 7.5h54.882812c4.144532 0 7.5-3.359375 7.5-7.5 0-4.144531-3.355468-7.5-7.5-7.5zm0 0"/><path d="m221.316406 260.308594h-54.882812c-4.144532 0-7.5 3.359375-7.5 7.5 0 4.144531 3.355468 7.5 7.5 7.5h54.882812c4.144532 0 7.5-3.355469 7.5-7.5 0-4.140625-3.355468-7.5-7.5-7.5zm0 0"/><path d="m221.316406 306.734375h-54.882812c-4.144532 0-7.5 3.359375-7.5 7.5s3.355468 7.5 7.5 7.5h54.882812c4.144532 0 7.5-3.359375 7.5-7.5s-3.355468-7.5-7.5-7.5zm0 0"/><path d="m345.566406 167.460938h-54.882812c-4.144532 0-7.5 3.359374-7.5 7.5 0 4.140624 3.355468 7.5 7.5 7.5h54.882812c4.144532 0 7.5-3.359376 7.5-7.5 0-4.140626-3.355468-7.5-7.5-7.5zm0 0"/><path d="m345.566406 213.886719h-54.882812c-4.144532 0-7.5 3.355469-7.5 7.5 0 4.140625 3.355468 7.5 7.5 7.5h54.882812c4.144532 0 7.5-3.359375 7.5-7.5 0-4.144531-3.355468-7.5-7.5-7.5zm0 0"/><path d="m345.566406 260.308594h-54.882812c-4.144532 0-7.5 3.359375-7.5 7.5 0 4.144531 3.355468 7.5 7.5 7.5h54.882812c4.144532 0 7.5-3.355469 7.5-7.5 0-4.140625-3.355468-7.5-7.5-7.5zm0 0"/><path d="m345.566406 306.734375h-54.882812c-4.144532 0-7.5 3.359375-7.5 7.5s3.355468 7.5 7.5 7.5h54.882812c4.144532 0 7.5-3.359375 7.5-7.5s-3.355468-7.5-7.5-7.5zm0 0"/><path d="m414.933594 182.460938h54.882812c4.144532 0 7.5-3.359376 7.5-7.5 0-4.140626-3.355468-7.5-7.5-7.5h-54.882812c-4.144532 0-7.5 3.359374-7.5 7.5 0 4.140624 3.355468 7.5 7.5 7.5zm0 0"/><path d="m414.933594 228.886719h54.882812c4.144532 0 7.5-3.359375 7.5-7.5 0-4.144531-3.355468-7.5-7.5-7.5h-54.882812c-4.144532 0-7.5 3.355469-7.5 7.5 0 4.140625 3.355468 7.5 7.5 7.5zm0 0"/><path d="m414.933594 275.308594h54.882812c4.144532 0 7.5-3.355469 7.5-7.5 0-4.140625-3.355468-7.5-7.5-7.5h-54.882812c-4.144532 0-7.5 3.359375-7.5 7.5 0 4.144531 3.355468 7.5 7.5 7.5zm0 0"/><path d="m414.933594 321.734375h54.882812c4.144532 0 7.5-3.359375 7.5-7.5s-3.355468-7.5-7.5-7.5h-54.882812c-4.144532 0-7.5 3.359375-7.5 7.5s3.355468 7.5 7.5 7.5zm0 0"/><path d="m100.726562 42.8125c0 4.140625 3.355469 7.5 7.5 7.5h295.546876c4.144531 0 7.5-3.359375 7.5-7.5s-3.355469-7.5-7.5-7.5h-295.546876c-4.144531 0-7.5 3.359375-7.5 7.5zm0 0"/><path d="m504.5 0h-135.554688c-4.144531 0-7.5 3.359375-7.5 7.5s3.355469 7.5 7.5 7.5h128.054688v55.625h-482v-55.625h328.699219c4.144531 0 7.5-3.359375 7.5-7.5s-3.355469-7.5-7.5-7.5h-336.199219c-4.144531 0-7.5 3.359375-7.5 7.5v262.085938c0 4.144531 3.355469 7.5 7.5 7.5s7.5-3.355469 7.5-7.5v-138.835938h109.25v227.695312h-109.25v-63.613281c0-4.140625-3.355469-7.5-7.5-7.5s-7.5 3.359375-7.5 7.5v71.113281c0 4.140626 3.355469 7.5 7.5 7.5h417.265625c4.140625 0 7.5-3.359374 7.5-7.5 0-4.144531-3.359375-7.5-7.5-7.5h-37.015625v-227.695312h109.25v227.695312h-46.988281c-4.144531 0-7.5 3.355469-7.5 7.5 0 4.140626 3.355469 7.5 7.5 7.5h54.488281c4.144531 0 7.5-3.359374 7.5-7.5v-358.445312c0-4.144531-3.355469-7.5-7.5-7.5zm-131.75 115.75h-109.25v-30.125h109.25zm-124.25 0h-109.25v-30.125h109.25zm-233.5 0v-30.125h109.25v30.125zm124.25 15h109.25v227.695312h-109.25zm124.25 0h109.25v227.695312h-109.25zm124.25-15v-30.125h109.25v30.125zm0 0"/></svg>