<svg id="Layer_1" enable-background="new 0 0 450 450" height="512" viewBox="0 0 450 450" width="512" xmlns="http://www.w3.org/2000/svg"><g><g><g><g><path d="m321 236.1c-15.8 0-28.7-12.9-28.7-28.7 0-2.8 2.2-5 5-5s5 2.2 5 5c0 10.3 8.4 18.7 18.7 18.7s18.7-8.4 18.7-18.7-8.4-18.7-18.7-18.7c-15.8 0-28.7-12.9-28.7-28.7s12.9-28.7 28.7-28.7 28.7 12.9 28.7 28.7c0 2.8-2.2 5-5 5s-5-2.2-5-5c0-10.3-8.4-18.7-18.7-18.7s-18.7 8.4-18.7 18.7 8.4 18.7 18.7 18.7c15.8 0 28.7 12.9 28.7 28.7s-12.9 28.7-28.7 28.7z"/></g><g><path d="m321 247.9c-2.8 0-5-2.2-5-5v-11.8c0-2.8 2.2-5 5-5s5 2.2 5 5v11.8c0 2.8-2.2 5-5 5z"/></g><g><path d="m321 141.4c-2.8 0-5-2.2-5-5v-11.8c0-2.8 2.2-5 5-5s5 2.2 5 5v11.8c0 2.8-2.2 5-5 5z"/></g><g><path d="m321 272.5c-49 0-88.8-39.8-88.8-88.8s39.8-88.8 88.8-88.8 88.8 39.8 88.8 88.8-39.8 88.8-88.8 88.8zm0-167.6c-43.5 0-78.8 35.4-78.8 78.8s35.4 78.8 78.8 78.8 78.8-35.4 78.8-78.8-35.3-78.8-78.8-78.8z"/></g></g><g><path d="m410.9 268.5c-1.2 0-2.4-.4-3.3-1.3-2.1-1.8-2.3-5-.4-7.1 18.7-21.1 29-48.3 29-76.5 0-63.5-51.7-115.2-115.2-115.2s-115.2 51.7-115.2 115.2c0 14.9 2.8 29.4 8.4 43.2 1 2.6-.2 5.5-2.8 6.5s-5.5-.2-6.5-2.8c-6.1-15-9.1-30.8-9.1-46.9 0-69.1 56.2-125.2 125.2-125.2s125.2 56.2 125.2 125.2c0 30.7-11.2 60.2-31.6 83.1-.9 1.3-2.3 1.8-3.7 1.8z"/></g><g><g><path d="m279.8 386.8c-25.7 0-62-9.3-104.2-46.6l-19.8 11.4c-2.4 1.4-5.4.6-6.8-1.8s-.6-5.5 1.8-6.8l23-13.3c1.9-1.1 4.3-.8 5.9.6 79 71.8 134.7 39.3 135.3 38.9 0 0 .1 0 .1-.1l105.9-61.1c10.1-5.9 13.6-18.8 7.8-29-5.9-10.1-18.8-13.6-29-7.8l-62.5 36.1c0 .2.1.3.1.5 2.4 10.3-1.3 21.3-9.7 28.5-9.7 8.4-23.4 10.3-36.7 5.1l-50.1-15.4c-2.6-.8-4.1-3.6-3.3-6.3s3.6-4.1 6.3-3.3l50.2 15.5c.1 0 .2.1.4.1 10 3.9 19.8 2.7 26.7-3.3 5.6-4.9 8.1-12 6.5-18.7-.2-1-.5-1.9-.9-2.9-.1-.2-.1-.3-.2-.5-3.6-8-12.9-14.3-26.6-17.8-14.9-3.8-42.1-13-56.3-32-16.4-21.9-24.1-30.3-50.4-17.8l-76.7 44.3c-2.4 1.4-5.4.6-6.8-1.8s-.6-5.5 1.8-6.8l76.9-44.4c.1-.1.2-.1.3-.2 34.9-16.7 47.3-.2 62.9 20.7 12.3 16.5 37.1 24.8 50.7 28.3 17.2 4.4 26.1 12 30.7 18.9l61.7-35.6c14.9-8.6 34-3.5 42.6 11.4s3.5 34-11.4 42.6l-105.9 61.1c-1.7 1.3-16.4 9.3-40.3 9.3z"/></g><g><path d="m176.2 339.1c-1.7 0-3.4-.9-4.3-2.5l-39.3-68.1c-1.4-2.4-.6-5.5 1.8-6.8 2.4-1.4 5.4-.6 6.8 1.8l39.3 68.1c1.4 2.4.6 5.5-1.8 6.8-.8.5-1.6.7-2.5.7z"/></g><g><g><path d="m140.8 385c-1.7 0-3.4-.9-4.3-2.5-1.4-2.4-.6-5.5 1.8-6.8l18.4-10.6c.4-.2.5-.8.3-1.1l-55.5-96.2c-.2-.4-.8-.5-1.2-.3l-18.4 10.6c-2.4 1.4-5.4.6-6.8-1.8s-.6-5.5 1.8-6.8l18.4-10.6c5.2-3 11.8-1.2 14.8 4l55.5 96.2c3 5.2 1.2 11.8-4 14.8l-18.4 10.6c-.7.3-1.6.5-2.4.5z"/></g><g><path d="m82.3 430.9c-1.2 0-2.5-.2-3.7-.5-3.6-1-6.7-3.3-8.5-6.5l-64-110.9c-1.9-3.2-2.4-7-1.4-10.6s3.3-6.6 6.5-8.5l52-30c6.7-3.9 15.3-1.6 19.2 5.1l64 110.9c1.9 3.2 2.4 7 1.4 10.6s-3.3 6.6-6.5 8.5l-52 30c-2.1 1.2-4.5 1.9-7 1.9zm-12-159c-.7 0-1.4.2-2 .5l-52 30c-.9.5-1.6 1.4-1.9 2.5-.3 1-.1 2.1.4 3.1l64 110.9c.5.9 1.4 1.6 2.4 1.9 1.1.3 2.1.1 3.1-.4l52-30c.9-.5 1.6-1.4 1.9-2.5.3-1 .1-2.1-.4-3.1l-64-110.9c-.8-1.3-2.1-2-3.5-2z"/></g><g><path d="m99.7 422.2c-1.7 0-3.4-.9-4.3-2.5l-24.8-43c-1.4-2.4-.6-5.5 1.8-6.8 2.4-1.4 5.4-.6 6.8 1.8l24.8 43c1.4 2.4.6 5.5-1.8 6.8-.8.5-1.6.7-2.5.7z"/></g><g><path d="m125.9 407.1c-1.7 0-3.4-.9-4.3-2.5l-36.5-63.2c-1.4-2.4-.6-5.5 1.8-6.8 2.4-1.4 5.4-.6 6.8 1.8l36.5 63.2c1.4 2.4.6 5.5-1.8 6.8-.8.5-1.6.7-2.5.7z"/></g><g><path d="m39.4 328.5c-4.8 0-9.4-2.5-12-6.9-3.8-6.6-1.5-15 5-18.8 6.6-3.8 15-1.5 18.8 5 3.8 6.6 1.5 15-5 18.8-2.1 1.3-4.5 1.9-6.8 1.9zm-3.3-11.9c1 1.8 3.3 2.4 5.2 1.4 1.8-1 2.4-3.4 1.4-5.1s-3.3-2.4-5.2-1.4-2.5 3.3-1.4 5.1z"/></g><g><path d="m67.4 312.3c-4.8 0-9.4-2.5-11.9-6.9-3.8-6.6-1.5-15 5-18.8 6.6-3.8 15-1.5 18.8 5 1.8 3.2 2.3 6.9 1.4 10.5s-3.2 6.5-6.4 8.4c-2.2 1.2-4.6 1.8-6.9 1.8zm-3.3-11.8c1 1.8 3.3 2.4 5.2 1.4.9-.5 1.5-1.3 1.8-2.3s.1-2-.4-2.9c-1-1.8-3.3-2.4-5.2-1.4s-2.4 3.4-1.4 5.2z"/></g></g></g></g><g><path d="m138.9 201.3c-1.3 0-2.6-.5-3.5-1.5-4.6-4.6-9.3-8.1-13.4-11.3-8.8-6.6-17.1-12.9-17.1-25.1 0-10.8 8.8-19.6 19.5-19.6 6.9 0 11.3 2.7 14.6 6.6 3.2-3.8 7.7-6.6 14.6-6.6 10.8 0 19.6 8.8 19.6 19.6 0 12.2-8.3 18.5-17.1 25.1-4.1 3.1-8.9 6.7-13.4 11.3-1.2 1.1-2.5 1.5-3.8 1.5zm-14.5-47.3c-5.3 0-9.6 4.3-9.6 9.6 0 6.9 4.3 10.4 13.1 17.1 3.4 2.6 7.1 5.4 11 8.8 3.9-3.5 7.6-6.3 11-8.8 8.9-6.7 13.1-10.2 13.1-17.1 0-5.3-4.3-9.6-9.6-9.6-4.1 0-6.6 1.2-10.1 8.1-.9 1.7-2.6 2.8-4.5 2.8-1.9 0-3.6-1.1-4.5-2.8-3.3-7-5.7-8.1-9.9-8.1z"/></g><g><path d="m172.2 114c-1.3 0-2.6-.5-3.5-1.5-8.3-8.3-16.6-14.6-24.1-20.2-15.3-11.5-28.6-21.5-28.6-41.1 0-16.9 13.7-30.6 30.6-30.6 12.4 0 19.8 5.4 25.6 14.1 5.8-8.7 13.2-14.1 25.6-14.1 16.9 0 30.6 13.7 30.6 30.6 0 19.6-13.3 29.6-28.6 41.2-7.4 5.6-15.8 11.9-24.1 20.2-.9.9-2.2 1.4-3.5 1.4zm-25.6-83.4c-11.4 0-20.6 9.3-20.6 20.6 0 14.6 9.8 22 24.6 33.2 6.6 5 14 10.6 21.6 17.6 7.6-7.1 14.9-12.7 21.6-17.6 14.8-11.2 24.6-18.6 24.6-33.2 0-11.4-9.3-20.6-20.6-20.6-9.8 0-14.9 4-21.1 16.4-.9 1.7-2.6 2.8-4.5 2.8-1.9 0-3.6-1.1-4.5-2.8-6.2-12.4-11.3-16.4-21.1-16.4z"/></g></g></svg>