<svg enable-background="new 0 0 512 512" height="512" viewBox="0 0 512 512" width="512" xmlns="http://www.w3.org/2000/svg"><g id="_x38_2_Online_Registration"><g><path d="m285.188 51.038h8.346c3.188 0 5.774-2.587 5.774-5.774 0-3.188-2.586-5.774-5.774-5.774h-8.346c-3.187 0-5.774 2.586-5.774 5.774-.001 3.187 2.586 5.774 5.774 5.774z"/><path d="m164.244 51.038h91.41c3.188 0 5.774-2.587 5.774-5.774 0-3.188-2.586-5.774-5.774-5.774h-91.41c-3.187 0-5.774 2.586-5.774 5.774 0 3.187 2.587 5.774 5.774 5.774z"/><path d="m228.899 435.469c-11.087 0-20.172 9.007-20.172 20.172 0 11.087 9.085 20.095 20.172 20.095s20.095-9.008 20.095-20.095c0-11.164-9.008-20.172-20.095-20.172z"/><path d="m335.564 278.331h-213.349c-3.188 0-5.774 2.586-5.774 5.774 0 3.187 2.586 5.774 5.774 5.774h213.349c3.188 0 5.774-2.587 5.774-5.774 0-3.188-2.586-5.774-5.774-5.774z"/><path d="m335.564 331.278h-213.349c-3.188 0-5.774 2.586-5.774 5.774s2.586 5.774 5.774 5.774h213.349c3.188 0 5.774-2.586 5.774-5.774s-2.586-5.774-5.774-5.774z"/><path d="m281.789 384.233h-105.8c-3.188 0-5.774 2.587-5.774 5.774 0 3.188 2.587 5.774 5.774 5.774h105.801c3.188 0 5.774-2.586 5.774-5.774s-2.586-5.774-5.775-5.774z"/><path d="m409.292 71.834v-23.714c0-20.172-16.399-36.571-36.571-36.571h-287.644c-20.172 0-36.571 16.399-36.571 36.571v415.76c0 20.172 16.399 36.571 36.571 36.571h287.644c20.172 0 36.571-16.399 36.571-36.571v-272.63c30.412-2.926 54.203-28.564 54.203-59.746s-23.791-56.822-54.203-59.67zm-11.549 392.046c0 13.782-11.241 25.023-25.023 25.023h-287.643c-13.782 0-25.023-11.241-25.023-25.023v-415.76c0-13.782 11.241-25.023 25.023-25.023h287.644c13.782 0 25.023 11.24 25.023 25.023v23.714c-30.412 2.925-54.28 28.564-54.28 59.669s23.868 56.82 54.28 59.746v272.631zm30.104-342.617-28.641 28.64c-2.233 2.311-5.928 2.311-8.161 0l-11.857-11.856c-2.31-2.31-2.31-5.928 0-8.161 2.233-2.31 5.851-2.31 8.161 0l7.776 7.776 24.561-24.561c2.233-2.232 5.928-2.232 8.161 0 2.233 2.311 2.233 5.929 0 8.162z"/><path d="m228.822 92.082c-18.247 0-33.107 14.937-33.107 33.262 0 18.247 14.86 33.107 33.107 33.107 18.324 0 33.261-14.86 33.261-33.107-.001-18.324-14.937-33.262-33.261-33.262z"/><path d="m171.154 236.52c0 3.234 2.618 5.774 5.774 5.774h103.94.154c3.157 0 5.774-2.54 5.774-5.774 0-.461-.077-.922-.154-1.385-.616-38.727-26.331-70.064-57.821-70.064-31.797 0-57.667 32.108-57.667 71.449z"/></g></g></svg>