<svg id="Capa_1" enable-background="new 0 0 512 512" height="512" viewBox="0 0 512 512" width="512" xmlns="http://www.w3.org/2000/svg"><g><g><circle cx="47.581" cy="115.718" fill="#ffe07d" r="16.032"/><path d="m47.581 163.815c-8.854 0-16.032 7.178-16.032 16.032v264.532h32.064v-185.879l-8.863-13.75 8.863-3.75v-61.154c0-8.854-7.178-16.031-16.032-16.031z" fill="#ffe07d"/><path d="m55.597 428.347h-16.032c-17.709 0-32.064 14.355-32.064 32.064h80.16c0-17.709-14.355-32.064-32.064-32.064z" fill="#ffd064"/><path d="m344.177 251.992h-143.177l-81.274 208.419h272.548z" fill="#ff8086"/><path d="m386.724 436.363h-193.744c-7.557 0-15.104-2.23-20.95-7.018-9.82-8.041-13.908-20.399-11.172-32.256l22.417-97.14 17.725-47.957h-33.178l-45.83 198.601c-1.159 5.023 2.656 9.818 7.811 9.818h252.394c5.155 0 8.97-4.796 7.811-9.818z" fill="#e5646e"/><path d="m351.657 185.216h-66.387l-20.515-63.138c-2.755-8.481-14.754-8.481-17.509 0l-20.515 63.138h-66.387c-8.917 0-12.625 11.411-5.41 16.653l53.709 39.021-20.515 63.138c-2.756 8.482 6.951 15.534 14.165 10.292l53.707-39.02 53.709 39.021c7.214 5.242 16.92-1.81 14.165-10.292l-20.515-63.138 53.709-39.021c7.214-5.242 3.507-16.654-5.411-16.654z" fill="#ffe07d"/><path d="m154.932 201.869 53.709 39.022-20.515 63.139c-2.756 8.481 6.951 15.533 14.165 10.292l53.709-39.022 53.709 39.021c3.706 2.693 8.045 2.112 11.039-.212l-65.628-70.003c-9.971-10.635-17.394-23.398-21.708-37.323l-6.681-21.566h-66.387c-8.918-.001-12.626 11.41-5.412 16.652z" fill="#ffd064"/><path d="m47.581 428.347h-8.016c-17.708 0-32.064 14.356-32.065 32.064 0 0 .001.001.001.001h40.08z" fill="#ffc250"/><path d="m31.549 227.944h32.065v30.556h-32.065z" fill="#ffd064"/><path d="m55.597 235.96h-16.032c-8.854 0-16.032-7.178-16.032-16.032 0-8.854 7.178-16.032 16.032-16.032h16.032c8.854 0 16.032 7.178 16.032 16.032 0 8.854-7.178 16.032-16.032 16.032z" fill="#fff0af"/><circle cx="464.42" cy="115.718" fill="#ffe07d" r="16.032"/><path d="m464.42 163.815c-8.854 0-16.032 7.178-16.032 16.032v264.532h32.065v-264.532c-.001-8.855-7.179-16.032-16.033-16.032z" fill="#ffe07d"/><path d="m472.436 428.347h-16.032c-17.709 0-32.064 14.355-32.064 32.064h80.16c0-17.709-14.355-32.064-32.064-32.064z" fill="#ffd064"/><path d="m464.42 428.347h-8.016c-17.708 0-32.064 14.356-32.065 32.064 0 0 .001.001.001.001h40.08z" fill="#ffc250"/><path d="m448.388 227.944h32.065v30.556h-32.065z" fill="#ffd064"/><path d="m472.436 235.96h-16.032c-8.854 0-16.032-7.178-16.032-16.032 0-8.854 7.178-16.032 16.032-16.032h16.032c8.854 0 16.032 7.178 16.032 16.032 0 8.854-7.178 16.032-16.032 16.032z" fill="#fff0af"/></g><g><path d="m71.113 424.02v-155.996c0-4.142-3.358-7.5-7.5-7.5s-7.5 3.358-7.5 7.5v152.836c-.173-.002-.343-.013-.516-.013h-16.033c-.173 0-.344.011-.516.013v-177.414c.172.004.343.013.516.013h16.032c12.976 0 23.532-10.557 23.532-23.532 0-7.035-3.107-13.354-8.016-17.67v-22.411c0-10.353-6.724-19.16-16.032-22.3v-19.53c9.308-3.139 16.032-11.946 16.032-22.3 0-12.976-10.557-23.532-23.532-23.532s-23.532 10.557-23.532 23.532c0 10.353 6.724 19.16 16.032 22.3v19.53c-9.308 3.139-16.032 11.946-16.032 22.3v22.411c-4.909 4.316-8.016 10.635-8.016 17.67s3.107 13.354 8.016 17.67v186.423c-14.125 6.045-24.048 20.08-24.048 36.391 0 4.142 3.358 7.5 7.5 7.5h80.161c4.142 0 7.5-3.358 7.5-7.5 0-16.311-9.923-30.346-24.048-36.391zm-15.516-195.561h-16.033c-4.705 0-8.532-3.828-8.532-8.532s3.828-8.532 8.532-8.532h16.032c4.705 0 8.532 3.828 8.532 8.532s-3.827 8.532-8.531 8.532zm-8.016-121.273c4.705 0 8.532 3.828 8.532 8.532s-3.828 8.532-8.532 8.532-8.532-3.828-8.532-8.532 3.827-8.532 8.532-8.532zm-8.533 72.661c0-4.705 3.828-8.532 8.532-8.532s8.532 3.828 8.532 8.532v16.561c-.172-.004-.343-.013-.516-.013h-16.032c-.173 0-.344.009-.516.013zm-22.878 273.064c3.177-9.889 12.463-17.064 23.394-17.064h16.032c10.931 0 20.217 7.176 23.394 17.064z"/><path d="m487.952 424.02v-186.423c4.909-4.316 8.016-10.635 8.016-17.67s-3.107-13.354-8.016-17.67v-22.411c0-10.353-6.724-19.16-16.032-22.3v-19.53c9.308-3.139 16.032-11.946 16.032-22.3 0-12.976-10.557-23.532-23.532-23.532s-23.532 10.557-23.532 23.532c0 10.353 6.724 19.16 16.032 22.3v19.53c-9.308 3.139-16.032 11.946-16.032 22.3v22.411c-4.909 4.316-8.016 10.635-8.016 17.67s3.107 13.354 8.016 17.67v186.423c-14.125 6.046-24.048 20.08-24.048 36.391 0 4.142 3.358 7.5 7.5 7.5h80.16c4.142 0 7.5-3.358 7.5-7.5 0-16.311-9.923-30.346-24.048-36.391zm-40.081-204.093c0-4.705 3.828-8.532 8.532-8.532h16.032c4.705 0 8.532 3.828 8.532 8.532s-3.828 8.532-8.532 8.532h-16.032c-4.704 0-8.532-3.827-8.532-8.532zm16.548-112.741c4.705 0 8.532 3.828 8.532 8.532s-3.828 8.532-8.532 8.532-8.532-3.828-8.532-8.532 3.828-8.532 8.532-8.532zm-8.532 72.661c0-4.705 3.828-8.532 8.532-8.532s8.532 3.828 8.532 8.532v16.561c-.172-.004-.343-.013-.516-.013h-16.032c-.173 0-.344.009-.516.013zm0 63.599c.172.004.343.013.516.013h16.032c.173 0 .344-.009.516-.013v177.414c-.173-.002-.343-.013-.516-.013h-16.032c-.173 0-.344.011-.516.013zm-22.878 209.465c3.177-9.889 12.463-17.064 23.394-17.064h16.032c10.931 0 20.217 7.176 23.394 17.064z"/><path d="m351.485 250.305c-.932-4.036-4.96-6.555-8.995-5.622-4.036.932-6.553 4.958-5.622 8.995l45.978 199.233h-253.693l45.978-199.233c.931-4.036-1.585-8.063-5.622-8.995-4.035-.931-8.063 1.585-8.995 5.622l-48.097 208.419c-.514 2.227.016 4.567 1.439 6.355 1.423 1.789 3.583 2.831 5.869 2.831h272.549c2.286 0 4.446-1.042 5.869-2.831s1.953-4.128 1.439-6.355z"/><path d="m150.524 207.937 49.3 35.818-18.832 57.956c-2.278 7.013.104 14.344 6.069 18.678 5.963 4.333 13.672 4.333 19.637 0l49.302-35.819 49.301 35.819c2.983 2.167 6.4 3.25 9.819 3.25 3.418 0 6.836-1.083 9.818-3.25 5.965-4.333 8.347-11.665 6.069-18.678l-18.831-57.956 49.301-35.819c5.965-4.333 8.347-11.665 6.068-18.677s-8.515-11.543-15.888-11.543h-31.529c-4.142 0-7.5 3.358-7.5 7.5s3.358 7.5 7.5 7.5h31.529c.307 0 1.239 0 1.622 1.178.383 1.179-.372 1.727-.619 1.907l-53.709 39.021c-2.629 1.91-3.729 5.295-2.725 8.386l20.515 63.138c.095.292.383 1.179-.619 1.908-1.002.727-1.756.179-2.004 0l-53.709-39.022c-2.628-1.91-6.188-1.91-8.816 0l-53.709 39.021c-.248.18-1.002.727-2.004 0-1.002-.729-.714-1.616-.62-1.907l20.515-63.138c1.004-3.09-.096-6.476-2.725-8.386l-53.708-39.021c-.248-.18-1.003-.729-.62-1.907s1.315-1.178 1.622-1.178h66.388c3.249 0 6.129-2.092 7.133-5.182l20.516-63.139c.094-.292.382-1.178 1.621-1.178s1.527.886 1.622 1.178l20.515 63.138c1.28 3.939 5.51 6.095 9.451 4.815 3.939-1.28 6.095-5.511 4.815-9.451l-20.515-63.138c-2.278-7.012-8.514-11.543-15.888-11.543s-13.609 4.531-15.887 11.542l-18.832 57.956h-60.938c-7.373 0-13.609 4.531-15.888 11.543s.102 14.346 6.067 18.68z"/><path d="m218.632 104.989c1.464 1.464 3.384 2.197 5.303 2.197s3.839-.732 5.303-2.197c2.929-2.929 2.929-7.678 0-10.606l-16.031-16.033c-2.929-2.929-7.678-2.929-10.606 0-2.929 2.929-2.929 7.678 0 10.606z"/><path d="m288.064 107.186c1.919 0 3.839-.732 5.303-2.197l16.033-16.032c2.929-2.929 2.929-7.678 0-10.606-2.929-2.929-7.678-2.929-10.606 0l-16.032 16.032c-2.929 2.929-2.929 7.678 0 10.606 1.464 1.464 3.383 2.197 5.302 2.197z"/><path d="m256 91.153c4.142 0 7.5-3.358 7.5-7.5v-32.064c0-4.142-3.358-7.5-7.5-7.5s-7.5 3.358-7.5 7.5v32.064c0 4.142 3.358 7.5 7.5 7.5z"/></g></g></svg>