<svg id="Layer_1" enable-background="new 0 0 450 450" height="512" viewBox="0 0 450 450" width="512" xmlns="http://www.w3.org/2000/svg"><g><path d="m139.6 445h-94.53c-2.76 0-5-2.24-5-5v-212.51c0-2.76 2.24-5 5-5h94.53c2.76 0 5 2.24 5 5v212.51c0 2.76-2.24 5-5 5zm-89.53-10h84.53v-202.51h-84.53z"/><g><path d="m110.74 298.49h-36.8c-2.76 0-5-2.24-5-5v-36.8c0-2.76 2.24-5 5-5h36.8c2.76 0 5 2.24 5 5v36.8c0 2.76-2.24 5-5 5zm-31.81-10h26.8v-26.8h-26.8z"/><path d="m110.74 357.15h-36.8c-2.76 0-5-2.24-5-5v-36.8c0-2.76 2.24-5 5-5h36.8c2.76 0 5 2.24 5 5v36.8c0 2.76-2.24 5-5 5zm-31.81-10h26.8v-26.8h-26.8z"/><path d="m110.74 415.8h-36.8c-2.76 0-5-2.24-5-5v-36.8c0-2.76 2.24-5 5-5h36.8c2.76 0 5 2.24 5 5v36.8c0 2.76-2.24 5-5 5zm-31.81-10h26.8v-26.8h-26.8z"/></g><path d="m404.93 445h-94.53c-2.76 0-5-2.24-5-5v-212.51c0-2.76 2.24-5 5-5h94.53c2.76 0 5 2.24 5 5v212.51c0 2.76-2.24 5-5 5zm-89.53-10h84.53v-202.51h-84.53z"/><g><path d="m376.07 298.49h-36.8c-2.76 0-5-2.24-5-5v-36.8c0-2.76 2.24-5 5-5h36.8c2.76 0 5 2.24 5 5v36.8c0 2.76-2.24 5-5 5zm-31.81-10h26.8v-26.8h-26.8z"/><path d="m376.07 357.15h-36.8c-2.76 0-5-2.24-5-5v-36.8c0-2.76 2.24-5 5-5h36.8c2.76 0 5 2.24 5 5v36.8c0 2.76-2.24 5-5 5zm-31.81-10h26.8v-26.8h-26.8z"/><path d="m376.07 415.8h-36.8c-2.76 0-5-2.24-5-5v-36.8c0-2.76 2.24-5 5-5h36.8c2.76 0 5 2.24 5 5v36.8c0 2.76-2.24 5-5 5zm-31.81-10h26.8v-26.8h-26.8z"/></g><path d="m310.39 445h-170.79c-2.76 0-5-2.24-5-5v-283.9c0-2.76 2.24-5 5-5s5 2.24 5 5v278.9h160.8v-278.9c0-2.76 2.24-5 5-5s5 2.24 5 5v283.9c-.01 2.76-2.24 5-5.01 5z"/><g><g><path d="m205.68 227.1h-36.8c-2.76 0-5-2.24-5-5v-36.8c0-2.76 2.24-5 5-5h36.8c2.76 0 5 2.24 5 5v36.8c0 2.76-2.24 5-5 5zm-31.8-10h26.8v-26.8h-26.8z"/><path d="m281.12 227.1h-36.8c-2.76 0-5-2.24-5-5v-36.8c0-2.76 2.24-5 5-5h36.8c2.76 0 5 2.24 5 5v36.8c0 2.76-2.23 5-5 5zm-31.8-10h26.8v-26.8h-26.8z"/></g><g><path d="m205.68 285.76h-36.8c-2.76 0-5-2.24-5-5v-36.8c0-2.76 2.24-5 5-5h36.8c2.76 0 5 2.24 5 5v36.8c0 2.76-2.24 5-5 5zm-31.8-10h26.8v-26.8h-26.8z"/><path d="m281.12 285.76h-36.8c-2.76 0-5-2.24-5-5v-36.8c0-2.76 2.24-5 5-5h36.8c2.76 0 5 2.24 5 5v36.8c0 2.76-2.23 5-5 5zm-31.8-10h26.8v-26.8h-26.8z"/></g><g><path d="m205.68 344.42h-36.8c-2.76 0-5-2.24-5-5v-36.8c0-2.76 2.24-5 5-5h36.8c2.76 0 5 2.24 5 5v36.8c0 2.76-2.24 5-5 5zm-31.8-10h26.8v-26.8h-26.8z"/><path d="m281.12 344.42h-36.8c-2.76 0-5-2.24-5-5v-36.8c0-2.76 2.24-5 5-5h36.8c2.76 0 5 2.24 5 5v36.8c0 2.76-2.23 5-5 5zm-31.8-10h26.8v-26.8h-26.8z"/></g></g><path d="m264.31 445c-2.76 0-5-2.24-5-5v-70.02h-68.44v70.02c0 2.76-2.24 5-5 5s-5-2.24-5-5v-75.02c0-2.76 2.24-5 5-5h78.44c2.76 0 5 2.24 5 5v75.02c0 2.76-2.24 5-5 5z"/><path d="m225.09 445c-2.76 0-5-2.24-5-5v-75.02c0-2.76 2.24-5 5-5s5 2.24 5 5v75.02c0 2.76-2.24 5-5 5z"/><path d="m310.39 161.1h-69.38c-2.76 0-5-2.24-5-5s2.24-5 5-5h69.38c2.76 0 5 2.24 5 5s-2.24 5-5 5z"/><path d="m208.98 161.1h-69.38c-2.76 0-5-2.24-5-5s2.24-5 5-5h69.38c2.76 0 5 2.24 5 5s-2.24 5-5 5z"/><g><path d="m225 176.02c-1.11 0-2.22-.37-3.14-1.11-2.54-2.05-62.22-50.76-62.22-104.56 0-36.03 29.32-65.35 65.36-65.35s65.36 29.32 65.36 65.36c0 53.8-59.68 102.51-62.22 104.55-.92.74-2.03 1.11-3.14 1.11zm0-161.02c-30.52 0-55.36 24.83-55.36 55.36 0 42.32 43.21 83.38 55.36 94.08 12.15-10.71 55.36-51.77 55.36-94.08 0-30.53-24.84-55.36-55.36-55.36z"/><g><g><path d="m248.78 106.11h-47.56c-2.49 0-4.91-1.04-6.63-2.84s-2.64-4.27-2.53-6.76l1.88-40.33c.13-2.67 2.32-4.77 4.99-4.77h52.13c2.67 0 4.87 2.1 4.99 4.77l1.88 40.33c.12 2.49-.81 4.96-2.53 6.76s-4.13 2.84-6.62 2.84zm-.83-9.13h.01zm-45.86-.87h45.82l-1.62-34.69h-42.58z"/></g><g><path d="m237.49 67.55c-2.76 0-5-2.24-5-5v-11.01c0-2-.78-3.88-2.19-5.3s-3.3-2.19-5.3-2.19c-4.13 0-7.49 3.36-7.49 7.49v11c0 2.76-2.24 5-5 5s-5-2.24-5-5v-11c0-9.65 7.85-17.49 17.49-17.49 4.67 0 9.06 1.82 12.37 5.12 3.3 3.31 5.12 7.7 5.12 12.37v11c0 2.77-2.24 5.01-5 5.01z"/></g></g></g></g></svg>