<svg width="120" height="120" viewBox="0 0 120 120" fill="none" xmlns="http://www.w3.org/2000/svg">
<path d="M36 90V30C36 29.4477 36.4477 29 37 29H72.9748C73.2355 29 73.4859 29.1018 73.6727 29.2837L84.6978 40.0254C84.891 40.2137 85 40.4719 85 40.7417V90C85 90.5523 84.5523 91 84 91H37C36.4477 91 36 90.5523 36 90Z" fill="white" stroke="#008481" stroke-width="3" stroke-linejoin="round"/>
<g style="mix-blend-mode:multiply" opacity="0.15">
<path d="M82.0434 44.6244V87.8571H39.1963L82.0434 44.6244Z" fill="#00C1BF"/>
</g>
<path d="M46.7267 46.5386C49.3373 46.5386 51.4535 44.4033 51.4535 41.7693C51.4535 39.1353 49.3373 37 46.7267 37C44.1162 37 42 39.1353 42 41.7693C42 44.4033 44.1162 46.5386 46.7267 46.5386Z" stroke="#57B520" stroke-width="2" stroke-miterlimit="10" stroke-linecap="round" stroke-dasharray="3 5"/>
<path d="M78.0002 60V62H75.9927" stroke="#00C1BF" stroke-width="2" stroke-linecap="round" stroke-linejoin="round"/>
<path d="M72.1123 62H48.0225" stroke="#00C1BF" stroke-width="2" stroke-linecap="round" stroke-linejoin="round" stroke-dasharray="3 4"/>
<path d="M44.0075 62H42V60" stroke="#00C1BF" stroke-width="2" stroke-linecap="round" stroke-linejoin="round"/>
<path d="M42 55V53H44.0075" stroke="#00C1BF" stroke-width="2" stroke-linecap="round" stroke-linejoin="round"/>
<path d="M48.0225 53H72.1123" stroke="#00C1BF" stroke-width="2" stroke-linecap="round" stroke-linejoin="round" stroke-dasharray="3 4"/>
<path d="M75.9927 53H78.0002V55" stroke="#00C1BF" stroke-width="2" stroke-linecap="round" stroke-linejoin="round"/>
<path d="M74.3913 41.5C73.8904 41.4979 73.4105 41.2982 73.0563 40.9443C72.702 40.5904 72.5021 40.1111 72.5 39.6106V30.7699C72.4995 30.5189 72.5737 30.2734 72.713 30.0645C72.8524 29.8556 73.0508 29.6928 73.2829 29.5966C73.515 29.5005 73.7705 29.4754 74.017 29.5245C74.2634 29.5736 74.4897 29.6947 74.6671 29.8725L84.1238 39.3193C84.3029 39.4955 84.4252 39.7212 84.475 39.9673C84.5248 40.2135 84.4998 40.4689 84.4033 40.7007C84.3067 40.9326 84.143 41.1303 83.9331 41.2685C83.7232 41.4067 83.4768 41.4791 83.2254 41.4764L74.3913 41.5Z" fill="#008481"/>
<path d="M63.7383 69.6417H77.8954" stroke="#00C1BF" stroke-width="1.5" stroke-linecap="round" stroke-linejoin="round"/>
</svg>
