<svg width="120" height="122" viewBox="0 0 120 122" fill="none" xmlns="http://www.w3.org/2000/svg">
<path d="M64.9454 78.788C65.0371 75.6777 64.1825 72.6137 62.4966 70.0081C60.6123 67.2738 57.9164 66.4478 55.3053 64.6961C54.0914 63.8701 54.042 62.1469 54.289 60.8082C54.6137 59.0636 55.3335 54.9621 55.8628 53.3101C56.6749 52.7742 57.3526 52.0553 57.8425 51.2101C58.3324 50.3649 58.621 49.4165 58.6857 48.4395C58.6857 46.6166 57.8388 45.634 56.5685 44.694V42.9067C56.5191 36.6263 57.5001 29 45.2417 29C42.2636 29 37.38 30.0823 37.38 33.3935C37.38 33.5857 33.4844 32.9306 33.9643 42.8783V44.6656C32.6799 45.6055 31.8472 46.5881 31.8472 48.411C31.9089 49.3836 32.1927 50.3287 32.6762 51.1723C33.1598 52.016 33.8301 52.7354 34.6348 53.2745C35.1711 54.9336 35.8909 59.028 36.2156 60.7797C36.4626 62.1184 36.4061 63.8416 35.1993 64.6676C32.5882 66.4549 29.8923 67.2453 28.001 69.9797C26.302 72.5908 25.4397 75.6658 25.531 78.788C31.0811 83.4081 38.0466 85.9446 45.2417 85.9657C52.4417 85.9848 59.4181 83.4435 64.9454 78.788V78.788Z" fill="white" stroke="#008481" stroke-width="3" stroke-linecap="round" stroke-linejoin="round"/>
<path d="M40.0479 35.1736C40.0479 35.1736 45.0585 36.9396 51.9816 35.1736" stroke="#00C1BF" stroke-width="1.5" stroke-miterlimit="10" stroke-linecap="round"/>
<g style="mix-blend-mode:multiply" opacity="0.2">
<path d="M55.2421 71.0122C55.2433 73.4146 54.6658 75.7814 53.5594 77.9087C52.453 80.0361 50.8507 81.8602 48.8906 83.2242C53.8204 82.5708 58.4932 80.621 62.4404 77.5703C62.3512 75.3659 61.6706 73.2273 60.4715 71.3824C59.4835 69.9583 58.1567 69.2035 56.4701 68.2564C55.9196 67.9431 55.355 67.6227 54.7763 67.2667C55.0911 68.4896 55.2477 69.7486 55.2421 71.0122V71.0122Z" fill="#00C1BF"/>
</g>
<path d="M52.9129 67.2667C50.8553 69.2778 48.1029 70.4024 45.2382 70.4024C42.3734 70.4024 39.6211 69.2778 37.5635 67.2667" stroke="#00C1BF" stroke-width="1.5" stroke-miterlimit="10" stroke-linecap="round"/>
<path d="M62.9208 75.4982C61.9038 76.0184 61.0161 76.7631 60.3237 77.6771C58.6935 79.9914 58.0654 81.031 58.0654 83.8294C63.0055 87.8313 69.4063 91 76.2659 91C83.1255 91 89.5405 87.8811 94.4664 83.8294C94.4664 81.0381 93.8383 79.9985 92.2081 77.6843C91.5173 76.7881 90.6374 76.0584 89.6323 75.5481V51.8646C89.552 48.3423 88.1089 44.9915 85.6117 42.529C83.1144 40.0665 79.7612 38.6878 76.2695 38.6878C72.7777 38.6878 69.4245 40.0665 66.9273 42.529C64.43 44.9915 62.9869 48.3423 62.9067 51.8646V75.5053L62.9208 75.4982Z" fill="white" stroke="#008481" stroke-width="3" stroke-linecap="round" stroke-linejoin="round"/>
<path d="M86.9498 74.2165C86.0718 73.838 85.2246 73.3904 84.4163 72.8778C83.634 72.2887 83.0287 71.4925 82.6675 70.5775C82.3062 69.6625 82.2032 68.6644 82.3697 67.6939C83.0119 65.3441 85.5384 63.1509 85.5384 60.6587V53.7017C85.5141 51.6325 84.8071 49.6305 83.529 48.0121C82.2509 46.3937 80.4747 45.2512 78.4812 44.7653C77.7881 47.299 76.2872 49.5319 74.2106 51.1188C72.1339 52.7058 69.597 53.5585 66.992 53.5451V60.6658C66.992 63.158 69.5256 65.3512 70.1607 67.7011C70.3305 68.671 70.2296 69.6694 69.8695 70.5848C69.5093 71.5002 68.904 72.2966 68.1212 72.8849C67.3158 73.3965 66.4709 73.8418 65.5947 74.2165" stroke="#00C1BF" stroke-width="1.5" stroke-miterlimit="10" stroke-linecap="round"/>
<g style="mix-blend-mode:multiply" opacity="0.15">
<path d="M85.5517 79.1796C85.5515 80.8661 85.17 82.5303 84.4363 84.0456C83.7025 85.5609 82.6358 86.8873 81.3174 87.9238C85.1641 86.9443 88.7683 85.172 91.9032 82.7186C91.755 81.5722 91.3033 80.8957 90.1671 79.2864C89.4614 78.2753 87.9229 77.5846 86.3068 76.8511C85.9187 76.6731 85.5305 76.4951 85.1353 76.3029C85.3968 77.2396 85.5367 78.2066 85.5517 79.1796Z" fill="#00C1BF"/>
</g>
<path d="M83.9431 75.7546C82.7152 76.9651 80.3299 78.8806 78.5373 80.2691C77.8874 80.7784 77.0878 81.0548 76.2649 81.0548C75.442 81.0548 74.6425 80.7784 73.9925 80.2691C72.207 78.845 69.8217 76.9651 68.5938 75.7546" stroke="#00C1BF" stroke-width="1.5" stroke-miterlimit="10" stroke-linecap="round"/>
</svg>
