<svg xmlns="http://www.w3.org/2000/svg" data-name="Layer 1" width="814.10215" height="785" viewBox="0 0 814.10215 785" xmlns:xlink="http://www.w3.org/1999/xlink"><title>ice_cream</title><path d="M663.893,822.88894l-229.21475.7592c-60.81041-18.2721-110.6323-81.736-110.94745-176.88721a269.465,269.465,0,0,1,3.23812-42.81223L511.59074,562.471l142.42432-31.995a283.262,283.262,0,0,1,29.2563,30.4193L547.08072,632.80761,482.83355,666.7338,555.028,641.82691l149.84346-51.69428a363.37031,363.37031,0,0,1,24.91622,44.67247l-45.211,46.72484L735.721,648.04757q.32788.76935.653,1.54117C768.78735,726.53874,728.57068,822.67471,663.893,822.88894Z" transform="translate(-192.94892 -57.5)" fill="#f2f2f2"/><path d="M626.22411,508.93981c-34.66294,9.9552-77.27875,22.53336-121.09467,35.60691C441.778,563.45453,375.92052,583.40809,327.9742,597.99381l.0313-.171a65.89939,65.89939,0,0,1,12.15994-28.22451c35.51716-46.17886,80.74259-78.4385,131.07659-90.4187h.00442a188.90614,188.90614,0,0,1,43.20151-5.1543C554.49386,473.89268,592.42573,486.45281,626.22411,508.93981Z" transform="translate(-192.94892 -57.5)" fill="#f2f2f2"/><ellipse cx="284.72861" cy="762.5" rx="156" ry="22.5" fill="#3f3d56"/><polygon points="229.229 552.5 229.229 587.5 254.229 590.5 269.229 571.5 257.229 547.5 229.229 552.5" fill="#fbbebe"/><polygon points="324.229 696.5 337.229 731.5 361.229 723.5 343.229 694.5 324.229 696.5" fill="#fbbebe"/><path d="M487.17753,456s-130-13-126,23,61,139,61,139l38-7s-27-42-25-56-6-33-6-33l19,3,11,17,23,118,35,106,26-7s-14-44-10-58-19-68-19-68l16-94s31-9,22-40S487.17753,456,487.17753,456Z" transform="translate(-192.94892 -57.5)" fill="#2f2e41"/><path d="M433.17753,634s-15-12-14-7a35.88236,35.88236,0,0,1,0,11l-14,31s-34,31-3,32,47-31,47-31,43-32,38-37-31.24173-16.48346-31.24173-16.48346S447.17753,641,433.17753,634Z" transform="translate(-192.94892 -57.5)" fill="#2f2e41"/><path d="M529.17753,773s-14-13-15-7-2,14-2,14l-21,20s-30,29-4,30a50.27149,50.27149,0,0,0,40-17s38-8,36-14-12.02812-29.212-16.51406-30.106S541.17753,781,529.17753,773Z" transform="translate(-192.94892 -57.5)" fill="#2f2e41"/><circle cx="288.22861" cy="223.5" r="31" fill="#fbbebe"/><path d="M467.17753,302s13,35,12,38,41-25,41-25-18-4-18-20Z" transform="translate(-192.94892 -57.5)" fill="#fbbebe"/><path d="M581.17753,353s18,18,21,24,71,82,71,82,45,53,27,54-41-42-41-42-64-47-67-58l-37-38Z" transform="translate(-192.94892 -57.5)" fill="#fbbebe"/><path d="M487.17753,332h-11l-15,24s-15,13-4,40,20,61,20,61,32,4,38,14,40,42,40,42,6-21,4-52,0-78,0-78l-2-62s-38.62342-8.95238-41.31171-7.47619S487.17753,332,487.17753,332Z" transform="translate(-192.94892 -57.5)" fill="#575a89"/><path d="M542.17753,324l15-3s16,10,31,39c0,0-32,21-35,20S542.17753,324,542.17753,324Z" transform="translate(-192.94892 -57.5)" fill="#575a89"/><path d="M450.17753,392s-23,37-16,51,16,13,16,13,17-3,17-17,7-15,7-15,44-36,27-36-40,25-40,25l-1-23Z" transform="translate(-192.94892 -57.5)" fill="#fbbebe"/><path d="M465.17753,355s-15,4-18,20-2,24-2,24l20-2Z" transform="translate(-192.94892 -57.5)" fill="#575a89"/><path d="M437.17753,435s16-21,18-18Z" transform="translate(-192.94892 -57.5)" opacity="0.1"/><path d="M496.92557,243.47071s-16.4399-16.42593-32.26693-5.39712-23.19733,21.533-21.43077,28.66652,6.70064,16.9912,6.70064,16.9912-3.29287-14.78823,10.01317-16.23678,31.49853-10.75491,31.49853-10.75491l13.15752,26.28707s1.60057-6.21312,6.53114-4.57193S511.35516,245.06778,496.92557,243.47071Z" transform="translate(-192.94892 -57.5)" fill="#2f2e41"/><path d="M384.43046,793.39447c0,14.58087-8.6676,19.672-19.36056,19.672q-.37157,0-.742-.00826c-.49543-.01062-.98615-.0342-1.47095-.06724-9.6502-.683-17.14766-6.03594-17.14766-19.59647,0-14.03354,17.93326-31.7415,19.28034-33.052l.00236-.00236c.05191-.05072.07786-.07549.07786-.07549S384.43046,778.8136,384.43046,793.39447Z" transform="translate(-192.94892 -57.5)" fill="#6264a7"/><path d="M364.36451,810.83584l7.08105-9.89437-7.09875,10.98077-.01886,1.13594c-.49543-.01062-.98615-.0342-1.47095-.06724l.7632-14.58794-.0059-.11325.013-.02123.072-1.37775-7.11645-11.00791,7.13886,9.97459.01653.29253.5768-11.02205-6.09255-11.37476,6.16687,9.44024.6004-22.851.00236-.07785v.07549l-.10026,18.01937,6.06544-7.14358-6.0902,8.69591-.16043,9.86842,5.6632-9.4709-5.68678,10.923-.08965,5.48625,8.22171-13.18188L364.56269,798.633Z" transform="translate(-192.94892 -57.5)" fill="#3f3d56"/><path d="M824.25561,277.1656s-6.15258,19.13-15.75329,46.61588c-3.10475,8.92836-6.58171,18.7294-10.33044,29.04561-5.22251,14.36534-10.97441,29.73228-16.99808,45.09922-3.70576,9.45775-7.51178,18.90109-11.36076,28.12986-20.68952,49.46327-42.72393,92.3161-57.161,92.91711-32.43645,1.345-101.91689-215.681-109.50028-239.66146-.44364-1.40225-.67244-2.14622-.67244-2.14622Z" transform="translate(-192.94892 -57.5)" fill="#3f3d56"/><path d="M808.50232,323.78148c-3.10475,8.92836-6.58171,18.7294-10.33044,29.04561L712.25139,277.1656h43.31079Z" transform="translate(-192.94892 -57.5)" opacity="0.1"/><path d="M781.1738,397.92631c-3.70576,9.45775-7.51178,18.90109-11.36076,28.12986L603.15178,279.31182c-.44364-1.40225-.67244-2.14622-.67244-2.14622h41.55091Z" transform="translate(-192.94892 -57.5)" opacity="0.1"/><path d="M717.21322,84.95124c-10.16683,8.05345-26.24329,5.00823-36.01423,13.53767-6.68346,5.83426-8.46629,15.811-6.64263,24.49329s6.66983,16.38641,11.54516,23.79846c3.36474,5.11548,6.85543,10.27131,11.58336,14.16184,6.61023,5.43944,15.09354,7.97157,23.409,10.00535a291.53447,291.53447,0,0,0,55.22065,8.00459c8.30366.3992,17.70782,0,23.30258-6.14892,3.25791-3.58058,4.56808-8.48756,5.52275-13.23341,1.49335-7.4237,2.32334-15.41629-.76268-22.33134-2.53654-5.68379-7.4189-9.94413-12.3619-13.7265-15.50455-11.864-33.7653-21.68612-43.22816-38.76242-3.76135-6.78757-6.081-14.653-11.78183-19.91932-7.43116-6.86422-23.96538-9.671-32.715-5.08559C705.6418,62.8267,723.30794,80.12343,717.21322,84.95124Z" transform="translate(-192.94892 -57.5)" fill="#6264a7"/><path d="M631.7791,164.994c-3.01441,10.453-5.79144,21.51288-3.25324,32.09156,3.34653,13.94762,15.57564,24.39322,28.99041,29.47057s28.044,5.67014,42.37748,6.20548l75.04644,2.8029c9.43141.35225,19.04446.73879,27.90812,3.98088,7.30555,2.67219,15.98846,7.07232,22.079,2.23322,2.76235-2.19477,4.00337-5.74846,4.98363-9.13766,3.18971-11.02831,4.97413-23.1385.68457-33.78733-4.91549-12.20271-17.0363-20.221-29.62113-24.05376s-25.913-4.206-38.98872-5.65343a235.01081,235.01081,0,0,1-39.20245-7.76008c-10.72045-3.08969-21.582-7.16666-29.51169-15.01481-4.28941-4.24528-7.53742-9.4226-11.58043-13.90315C658.53105,106.802,637.47542,145.24122,631.7791,164.994Z" transform="translate(-192.94892 -57.5)" fill="#6264a7"/><path d="M615.28817,213.01662a46.44571,46.44571,0,0,0-9.6887,78.925c11.42708,8.96812,26.38126,12.08678,40.86971,13.13079,14.1476,1.01946,28.35632.31812,42.52324-.38356l125.34586-6.20835c7.34736-.36392,15.66307-1.20952,20.14816-7.04049,3.34739-4.35188,3.54422-10.35413,2.745-15.786-2.87511-19.53966-17.62908-36.83807-36.47038-42.76-7.106-2.23346-14.5874-2.94016-22.00369-3.63408l-53.73227-5.02754c-7.23594-.67705-14.51425-1.36159-21.52732-3.26792-21.24864-5.7759-40.2354-22.6395-62.113-20.14253-14.84195,1.694-27.06227,12.08449-37.84366,22.42443" transform="translate(-192.94892 -57.5)" fill="#6264a7"/><path d="M685.46659,128.36088s17.53749,31.66338,107.495,44.448" transform="translate(-192.94892 -57.5)" opacity="0.1"/><path d="M635.707,211.29256s32.58985,32.96431,167.08643,32.96431" transform="translate(-192.94892 -57.5)" opacity="0.1"/><ellipse cx="518.27233" cy="52.26029" rx="8.58489" ry="2.86163" fill="#3f3d56"/><ellipse cx="546.88862" cy="70.86088" rx="8.58489" ry="2.86163" fill="#3f3d56"/><ellipse cx="579.79736" cy="90.89228" rx="8.58489" ry="2.86163" fill="#3f3d56"/><ellipse cx="465.33218" cy="99.47717" rx="8.58489" ry="2.86163" fill="#3f3d56"/><ellipse cx="538.30373" cy="126.66265" rx="8.58489" ry="2.86163" fill="#3f3d56"/><ellipse cx="435.28508" cy="182.46442" rx="8.58489" ry="2.86163" fill="#3f3d56"/><ellipse cx="489.65603" cy="129.52428" rx="8.58489" ry="2.86163" fill="#3f3d56"/><ellipse cx="456.7473" cy="203.92664" rx="8.58489" ry="2.86163" fill="#3f3d56"/><ellipse cx="512.54907" cy="191.04931" rx="8.58489" ry="2.86163" fill="#3f3d56"/><ellipse cx="546.17321" cy="243.27404" rx="9.3003" ry="19.316" fill="#6264a7"/><ellipse cx="557.61973" cy="250.42812" rx="9.3003" ry="19.316" fill="#6264a7"/><path d="M731.48631,494.18222c.07685-.3821,2.00542-9.51711,12.0949-22.844,9.25683-12.22653,27.46459-30.4201,61.64094-47.65917,64.74518-32.65792,79.233-94.01408,79.37143-94.63068l1.73.39048c-.03514.15631-3.65877,15.86481-15.32179,35.41392a158.73977,158.73977,0,0,1-64.98109,60.40974c-64.63456,32.60229-72.72216,68.90833-72.79667,69.27135Z" transform="translate(-192.94892 -57.5)" fill="#3f3d56"/><circle cx="694.95606" cy="253.45939" r="11.52464" fill="#6264a7"/><circle cx="692.67547" cy="309.37556" r="11.52464" fill="#3f3d56"/><circle cx="655.18533" cy="313.29983" r="11.52464" fill="#6264a7"/><circle cx="661.01248" cy="351.34545" r="11.52464" fill="#6264a7"/><circle cx="607.09376" cy="352.12599" r="11.52464" fill="#3f3d56"/><path d="M736.30309,499.22713S747.141,470.58936,786.95956,478.496Z" transform="translate(-192.94892 -57.5)" fill="#3f3d56"/><path d="M726.2599,489.21275s16.6658-25.6872-13.2774-53.09961Z" transform="translate(-192.94892 -57.5)" fill="#3f3d56"/><polygon points="806.157 445.349 787.079 437.82 768 430.292 784.059 417.534 800.118 404.775 803.138 425.062 806.157 445.349" fill="#f2f2f2"/><polygon points="38.157 315.349 19.079 307.82 0 300.292 16.059 287.534 32.118 274.775 35.138 295.062 38.157 315.349" fill="#f2f2f2"/><polygon points="711.157 556.349 692.079 548.82 673 541.292 689.059 528.534 705.118 515.775 708.138 536.062 711.157 556.349" fill="#f2f2f2"/><polygon points="814.102 627.105 796.083 636.902 778.065 646.7 778.589 626.197 779.113 605.693 796.608 616.399 814.102 627.105" fill="#f2f2f2"/><polygon points="135.102 235.105 117.083 244.902 99.065 254.7 99.589 234.197 100.113 213.693 117.608 224.399 135.102 235.105" fill="#f2f2f2"/></svg>