<svg width="2048px" height="2048px" viewBox="0 0 2048 2048" xmlns="http://www.w3.org/2000/svg" xmlns:xlink="http://www.w3.org/1999/xlink"><path transform="translate(0,2048) scale(1,-1)" d= "M1536 1152L1792 1152L1792 0L256 0L256 1152L1408 1152L1408 1536Q1408 1618 1378.5 1688Q1349 1758 1297.5 1809.5Q1246 1861 1176 1890.5Q1106 1920 1024 1920Q942 1920 872 1890.5Q802 1861 750.5 1809.5Q699 1758 669.5 1688Q640 1618 640 1536L512 1536Q512 1645 551 1738.5Q590 1832 659 1901Q728 1970 821.5 2009Q915 2048 1024 2048Q1133 2048 1226.5 2009Q1320 1970 1389 1901Q1458 1832 1497 1738.5Q1536 1645 1536 1536L1536 1152ZM1664 128L1664 1024L384 1024L384 128L1664 128Z"></path></svg>